<?xml version="1.0" standalone="no"?>
<!DOCTYPE svg PUBLIC "-//W3C//DTD SVG 20010904//EN"
 "http://www.w3.org/TR/2001/REC-SVG-20010904/DTD/svg10.dtd">
<svg version="1.0" xmlns="http://www.w3.org/2000/svg"
 width="2100.000000pt" height="444.000000pt" viewBox="0 0 2100.000000 444.000000"
 preserveAspectRatio="xMidYMid meet">
<metadata>
Created by potrace 1.16, written by Peter Selinger 2001-2019
</metadata>
<g transform="translate(0.000000,444.000000) scale(0.100000,-0.100000)"
fill="#000000" stroke="none">
<path d="M3220 4426 c-242 -93 -279 -115 -457 -275 -67 -60 -164 -143 -215
-184 -172 -139 -437 -411 -474 -488 -12 -24 -36 -75 -54 -114 -29 -61 -54 -91
-191 -225 -91 -90 -192 -201 -240 -265 -45 -60 -121 -155 -168 -211 -101 -119
-238 -293 -303 -384 -25 -36 -70 -93 -101 -127 -30 -34 -76 -95 -102 -135 -26
-40 -76 -107 -111 -149 -35 -42 -98 -132 -140 -200 -41 -68 -101 -155 -133
-194 -64 -78 -274 -367 -314 -431 -40 -64 -148 -312 -163 -374 -43 -176 2
-296 135 -363 152 -76 197 -65 347 86 130 132 171 188 297 407 137 237 177
301 321 520 71 107 158 247 193 310 58 103 140 234 227 360 46 68 246 316 313
390 33 36 82 99 108 140 92 144 352 427 487 531 43 33 103 92 135 132 31 40
95 113 142 162 139 146 223 252 266 330 59 107 100 145 159 145 39 0 50 -30
37 -103 -5 -34 -13 -109 -16 -167 -3 -58 -12 -148 -20 -200 -8 -52 -17 -123
-20 -156 -3 -34 -15 -92 -26 -130 -11 -38 -24 -121 -29 -184 -5 -70 -18 -150
-34 -205 -62 -218 -84 -742 -46 -1120 13 -129 72 -385 100 -429 74 -121 263
-191 441 -166 90 13 275 75 331 111 148 95 388 345 531 553 34 49 93 124 133
167 40 43 129 165 200 270 70 105 154 220 186 255 32 36 82 102 111 147 108
167 417 475 591 588 91 60 166 52 196 -20 30 -74 -25 -459 -94 -653 -25 -70
-54 -173 -66 -228 -11 -55 -40 -150 -65 -210 -24 -60 -51 -140 -60 -177 -22
-96 -68 -234 -135 -403 -32 -80 -70 -183 -85 -230 -16 -47 -49 -141 -76 -210
-192 -504 -205 -552 -196 -750 9 -189 -13 -170 203 -170 l184 0 0 38 c0 55 24
147 65 247 20 50 47 136 61 192 13 56 30 119 38 140 8 21 34 110 56 198 23 88
62 207 87 265 48 110 93 246 187 565 51 174 128 407 227 690 97 279 119 370
130 535 17 234 9 354 -25 425 -59 120 -216 253 -324 275 -31 7 -87 25 -124 41
-135 59 -260 35 -438 -84 -111 -75 -523 -490 -577 -582 -23 -38 -71 -99 -108
-135 -36 -36 -89 -103 -118 -150 -28 -46 -78 -118 -112 -160 -34 -41 -87 -111
-119 -155 -32 -44 -86 -109 -121 -145 -34 -36 -83 -93 -110 -128 -26 -35 -69
-89 -97 -120 -27 -31 -73 -93 -102 -137 -151 -229 -415 -320 -484 -167 -32 69
-16 481 28 742 36 216 57 288 118 410 57 115 57 115 59 250 1 88 7 154 17 190
12 40 16 101 16 224 0 111 5 198 16 253 15 83 15 83 -16 210 -58 241 -142 357
-343 477 -68 40 -76 41 -127 22z"/>
<path d="M17510 4363 c-54 -36 -65 -85 -45 -190 17 -88 5 -673 -15 -783 -7
-34 -10 -246 -9 -550 l2 -495 -52 -195 c-50 -188 -52 -202 -61 -390 -12 -252
-13 -257 -65 -408 -25 -71 -49 -164 -55 -212 -6 -47 -20 -116 -30 -155 -10
-38 -24 -106 -30 -150 -6 -44 -16 -96 -21 -115 -11 -36 -33 -333 -32 -431 1
-107 54 -161 165 -167 146 -9 224 77 322 354 19 54 49 137 66 184 42 113 168
612 179 709 19 168 79 197 258 126 49 -19 146 -55 218 -81 71 -25 251 -95 400
-154 282 -112 474 -167 664 -190 46 -5 116 -19 155 -30 39 -10 127 -26 196
-35 69 -8 154 -23 190 -32 86 -21 872 -32 989 -13 107 17 101 11 101 104 0 90
6 83 -139 168 -95 56 -246 84 -524 98 -262 13 -364 29 -572 85 -100 27 -174
45 -680 174 -409 104 -388 98 -620 186 -213 80 -246 96 -274 131 -49 62 -15
121 168 294 73 69 170 172 216 230 150 191 215 244 484 394 95 53 211 123 257
154 152 103 168 111 269 138 167 44 243 95 291 199 53 113 13 196 -151 315
-44 31 -94 65 -112 74 -81 41 -203 7 -494 -140 -269 -135 -342 -186 -523 -367
-84 -84 -186 -182 -226 -217 -39 -36 -103 -104 -142 -152 -123 -155 -190 -201
-231 -159 -21 21 -22 28 -17 174 3 84 5 397 5 697 -1 545 -1 545 -24 597 -64
143 -357 290 -451 226z"/>
<path d="M14706 3854 c-189 -41 -314 -112 -460 -260 -134 -135 -212 -246 -293
-409 -72 -148 -88 -194 -103 -303 -6 -42 -19 -106 -30 -142 -32 -104 -43 -350
-32 -730 10 -325 10 -325 46 -453 65 -232 115 -316 288 -483 136 -131 201
-178 352 -249 230 -110 231 -110 551 -110 280 0 280 0 390 38 214 74 412 191
507 300 34 40 142 151 239 247 195 193 250 268 311 429 33 86 33 86 33 376 0
330 -10 376 -130 585 -31 54 -72 138 -91 187 -51 132 -54 136 -217 298 -84 83
-195 195 -247 250 -73 76 -116 111 -180 149 -47 26 -155 88 -240 137 -85 49
-183 100 -218 114 -108 43 -342 57 -476 29z m287 -399 c107 -28 211 -90 382
-230 55 -44 134 -105 176 -134 241 -165 427 -498 475 -850 28 -206 19 -241
-156 -606 -38 -78 -225 -302 -282 -336 -63 -39 -121 -54 -333 -90 -240 -41
-349 -42 -525 -5 -198 42 -239 72 -327 242 -81 155 -97 279 -77 569 19 280 32
396 50 452 8 26 23 86 33 133 77 351 178 647 259 757 71 95 193 132 325 98z"/>
<path d="M8565 3525 c-27 -8 -93 -22 -145 -31 -107 -17 -174 -38 -285 -89
-166 -76 -454 -290 -561 -417 -247 -295 -269 -322 -331 -428 -28 -47 -86 -144
-130 -216 -88 -145 -136 -252 -185 -412 -33 -107 -33 -107 -33 -402 0 -396 -1
-393 215 -719 136 -206 198 -274 321 -355 113 -73 172 -95 304 -111 60 -8 148
-23 195 -34 129 -32 212 -28 392 18 158 39 355 120 483 198 230 139 625 482
673 584 56 118 1 212 -132 226 -117 12 -215 -30 -515 -220 -179 -114 -271
-158 -404 -195 -94 -26 -374 -22 -480 6 -199 54 -360 193 -361 312 -2 105 90
149 543 266 279 72 400 111 557 183 71 32 181 75 244 96 136 45 172 62 350
168 231 137 256 156 363 267 177 183 255 320 264 464 13 195 -58 305 -322 501
-330 244 -397 278 -645 322 -177 32 -306 38 -375 18z m417 -430 c148 -38 287
-126 331 -209 30 -57 30 -174 0 -231 -57 -109 -227 -293 -316 -344 -29 -17
-138 -68 -242 -114 -105 -47 -287 -131 -405 -187 -118 -57 -278 -125 -355
-152 -77 -27 -180 -67 -228 -90 -188 -86 -238 -28 -177 208 12 43 29 121 40
172 24 117 48 161 196 358 213 284 369 424 553 498 223 89 469 126 603 91z"/>
<path d="M12227 3380 c-193 -18 -339 -82 -532 -232 -146 -113 -501 -464 -616
-608 -46 -58 -110 -137 -144 -176 -33 -39 -83 -113 -112 -165 -28 -52 -84
-136 -122 -187 -79 -104 -220 -335 -278 -457 -65 -138 -48 -280 47 -389 74
-84 164 -91 293 -23 82 43 156 128 275 315 116 182 197 294 271 376 28 31 82
98 119 149 38 51 115 144 172 207 57 63 137 166 178 229 41 62 90 132 111 154
59 67 331 288 379 310 114 50 282 -35 352 -178 30 -61 33 -216 7 -355 -9 -47
-19 -121 -22 -165 -14 -176 -34 -300 -101 -615 -14 -63 -34 -167 -44 -230 -46
-265 -70 -401 -89 -495 -29 -147 -48 -448 -32 -511 46 -181 281 -196 447 -27
127 129 171 229 185 418 5 72 19 176 30 231 11 56 24 148 29 205 5 57 18 145
29 194 11 50 25 137 31 195 6 58 21 146 33 195 21 85 22 112 22 480 0 390 0
390 -33 535 -72 322 -136 424 -331 523 -192 99 -313 120 -554 97z"/>
</g>
</svg>
