<?xml version="1.0" standalone="no"?>
<!DOCTYPE svg PUBLIC "-//W3C//DTD SVG 20010904//EN"
 "http://www.w3.org/TR/2001/REC-SVG-20010904/DTD/svg10.dtd">
<svg version="1.0" xmlns="http://www.w3.org/2000/svg"
 width="1400.000000pt" height="296.000000pt" viewBox="0 0 1400.000000 296.000000"
 preserveAspectRatio="xMidYMid meet">
<metadata>
Created by potrace 1.16, written by Peter Selinger 2001-2019
</metadata>
<g transform="translate(0.000000,296.000000) scale(0.100000,-0.100000)"
fill="#000000" stroke="none">
<path d="M2130 2934 c-25 -8 -59 -19 -76 -24 -17 -6 -41 -10 -54 -10 -14 0
-37 -15 -59 -38 -20 -21 -50 -48 -68 -60 -17 -13 -35 -31 -38 -42 -4 -11 -13
-20 -21 -20 -8 0 -19 -11 -24 -25 -6 -15 -17 -25 -30 -25 -11 0 -20 -4 -20
-10 0 -5 -19 -18 -43 -29 -25 -11 -71 -50 -112 -95 -39 -42 -76 -76 -83 -76
-7 0 -15 -7 -19 -16 -7 -20 -62 -74 -74 -74 -5 0 -9 -7 -9 -15 0 -9 -7 -18
-15 -21 -8 -4 -15 -15 -15 -25 0 -63 -26 -114 -90 -176 -36 -35 -93 -90 -128
-124 -34 -33 -70 -75 -79 -92 -16 -32 -41 -63 -133 -167 -27 -30 -61 -73 -75
-95 -15 -22 -44 -58 -65 -80 -22 -22 -44 -51 -50 -65 -18 -41 -33 -63 -77
-108 -58 -62 -70 -77 -77 -100 -4 -12 -30 -45 -57 -74 -28 -29 -58 -67 -67
-85 -33 -62 -86 -147 -101 -162 -32 -32 -91 -108 -91 -117 0 -5 -20 -31 -45
-59 -25 -27 -45 -53 -45 -57 0 -12 -42 -71 -57 -81 -7 -4 -13 -21 -13 -36 0
-16 -8 -39 -18 -52 -11 -13 -22 -37 -26 -54 -4 -16 -14 -37 -21 -45 -16 -18
-31 -172 -21 -222 5 -30 14 -39 64 -63 31 -15 71 -34 88 -43 19 -9 41 -12 58
-8 26 6 161 136 194 186 9 14 31 43 49 66 18 23 33 51 33 62 0 12 11 29 25 38
17 11 25 25 25 45 0 16 5 29 11 29 5 0 17 15 25 32 25 54 40 78 63 99 11 11
21 28 21 37 0 10 16 35 35 56 20 22 38 49 41 61 3 13 21 39 39 60 19 20 37 46
41 58 3 12 12 29 19 37 8 8 19 26 25 40 6 14 21 43 35 65 13 22 29 52 35 67 6
14 17 29 24 31 8 3 23 25 35 49 11 24 41 65 66 93 25 27 45 53 45 58 0 10 37
55 132 157 31 34 59 74 63 88 4 15 10 29 14 32 4 3 34 34 66 70 173 192 213
234 246 251 41 20 119 105 119 129 0 16 82 110 95 110 4 0 14 -8 21 -17 10
-14 15 -15 25 -6 10 10 10 18 -1 38 -13 24 -12 28 16 50 16 13 37 24 46 25 10
0 22 9 28 20 6 11 17 20 25 20 20 0 19 39 0 46 -26 10 -17 30 33 73 26 23 56
51 67 62 41 38 82 12 53 -34 -26 -39 -45 -130 -43 -207 1 -46 -3 -85 -11 -102
-8 -15 -13 -55 -13 -90 0 -45 -6 -77 -21 -112 -17 -36 -21 -62 -18 -97 6 -62
-7 -147 -26 -168 -8 -9 -16 -47 -19 -91 -3 -41 -11 -115 -16 -165 -19 -159 5
-563 39 -645 10 -25 16 -57 13 -72 -4 -21 3 -37 33 -72 21 -25 43 -46 49 -46
6 0 27 -9 48 -20 49 -27 230 -29 258 -4 10 9 37 18 61 21 24 3 54 14 67 24 13
11 28 19 34 19 11 0 39 26 159 147 42 43 93 94 112 113 19 19 38 47 42 63 3
15 10 27 15 27 5 0 22 21 39 48 16 26 39 57 52 69 37 33 63 68 124 159 31 47
63 88 70 91 7 2 15 17 19 32 3 15 29 51 56 80 28 28 62 73 76 99 31 58 130
166 249 272 121 107 136 120 148 120 6 0 19 9 29 20 17 20 44 25 85 14 20 -6
22 -12 22 -81 0 -41 -6 -101 -14 -132 -8 -31 -17 -98 -21 -149 -6 -76 -10 -94
-26 -103 -10 -5 -19 -20 -19 -33 0 -13 -9 -43 -20 -67 -11 -24 -20 -66 -20
-92 0 -27 -8 -64 -19 -85 -10 -20 -28 -56 -40 -78 -12 -23 -21 -61 -21 -85 0
-27 -8 -56 -20 -74 -11 -16 -20 -43 -20 -58 0 -16 -9 -40 -20 -54 -11 -14 -20
-37 -20 -50 0 -14 -9 -36 -20 -50 -11 -14 -20 -35 -20 -47 0 -12 -9 -39 -20
-61 -11 -22 -20 -49 -20 -60 0 -11 -9 -38 -20 -60 -11 -22 -20 -47 -20 -56 0
-9 -7 -22 -15 -29 -8 -7 -17 -28 -20 -49 -4 -20 -14 -54 -24 -76 -56 -122 -80
-237 -74 -353 l5 -92 124 0 c124 0 125 0 134 26 6 14 10 43 10 66 0 25 8 49
20 65 11 14 20 34 20 45 0 10 6 29 14 41 8 12 17 48 20 79 3 38 12 67 25 84
14 18 21 41 21 71 0 24 7 55 16 69 10 14 16 43 16 68 -1 31 4 49 18 61 11 10
20 23 20 30 0 7 11 33 25 59 14 26 25 59 25 74 0 15 9 41 20 57 11 17 20 46
20 65 0 20 7 45 15 57 8 11 17 40 21 64 3 24 13 54 21 67 8 13 17 46 20 75 3
29 14 66 24 83 11 17 19 42 19 56 0 13 5 29 11 35 6 6 15 30 20 53 5 24 19 54
29 68 11 13 20 39 20 56 0 18 9 49 20 71 11 22 20 53 20 69 0 16 8 38 18 49
15 16 17 46 21 218 l3 199 -26 31 c-14 17 -26 37 -26 45 0 8 -7 17 -15 20 -8
3 -17 14 -20 25 -4 10 -13 19 -21 19 -8 0 -34 18 -58 40 -48 44 -81 51 -89 19
-8 -31 -41 -20 -47 15 -7 39 -54 53 -123 37 -27 -6 -61 -11 -77 -11 -17 0 -34
-8 -43 -20 -7 -10 -25 -24 -40 -29 -15 -6 -27 -15 -27 -21 0 -12 -64 -40 -91
-40 -22 0 -24 -11 -7 -28 9 -9 5 -17 -15 -36 -15 -14 -27 -29 -27 -35 0 -5
-16 -15 -35 -22 -23 -9 -35 -19 -35 -31 0 -11 -11 -23 -25 -28 -14 -5 -25 -13
-25 -17 -1 -5 -11 -21 -25 -37 -20 -25 -26 -28 -40 -16 -19 15 -34 5 -17 -12
22 -22 14 -41 -14 -35 -24 4 -26 2 -20 -24 4 -22 -3 -38 -34 -78 -45 -56 -56
-65 -65 -51 -3 5 -13 10 -21 10 -12 0 -14 -7 -9 -30 4 -18 3 -30 -4 -30 -5 0
-13 -10 -17 -22 -9 -28 -69 -115 -106 -151 -15 -16 -44 -53 -64 -83 -47 -70
-85 -114 -101 -114 -11 0 -29 -26 -53 -79 -7 -16 -16 -22 -30 -18 -16 4 -18 1
-13 -24 3 -17 1 -29 -5 -29 -13 0 -72 -58 -72 -70 0 -30 -98 -130 -127 -130
-4 0 -16 -9 -28 -20 -15 -14 -41 -22 -87 -27 -63 -5 -67 -5 -83 20 -15 23 -16
48 -12 199 7 223 11 279 26 305 6 12 11 52 11 90 0 51 5 75 20 98 11 17 20 43
20 58 0 19 12 40 36 65 l36 37 -4 111 c-3 97 -1 115 15 132 16 18 17 31 8 148
-8 118 -7 132 10 166 23 45 24 76 4 104 -8 12 -19 50 -24 85 -6 34 -17 66 -25
71 -7 4 -17 20 -21 35 -3 15 -13 32 -21 38 -8 5 -20 21 -27 35 -7 14 -22 30
-35 36 -12 6 -30 18 -40 27 -14 13 -100 50 -106 46 0 0 -21 -7 -46 -15z
M11648 2919 c-23 -13 -24 -93 -2 -149 10 -25 14 -50 9 -67 -12 -45 -23 -432
-24 -811 0 -286 -3 -357 -15 -380 -8 -15 -17 -46 -21 -67 -4 -22 -14 -58 -22
-80 -12 -29 -17 -86 -20 -205 -4 -136 -8 -172 -24 -206 -10 -22 -19 -47 -19
-55 0 -8 -7 -25 -16 -38 -10 -14 -18 -49 -20 -91 -2 -38 -10 -84 -18 -103 -8
-20 -17 -66 -21 -104 -4 -37 -13 -82 -21 -100 -9 -21 -14 -60 -13 -110 1 -43
-2 -110 -6 -149 -7 -69 -7 -71 21 -97 26 -24 36 -27 104 -27 65 0 78 3 96 23
27 28 74 117 74 138 0 9 6 22 14 28 7 6 16 28 20 49 3 20 15 55 26 77 11 21
20 46 20 55 0 9 6 24 14 35 7 11 16 43 20 71 3 27 15 76 26 107 11 31 20 71
20 89 0 18 7 42 15 52 9 12 15 43 16 75 0 31 4 76 7 101 6 39 11 45 39 53 25
8 40 5 73 -12 22 -11 49 -21 59 -21 10 0 29 -8 42 -19 13 -10 43 -21 67 -24
24 -3 51 -12 60 -20 9 -9 34 -18 55 -22 20 -4 40 -11 43 -16 2 -5 24 -13 47
-20 23 -6 49 -17 57 -24 8 -7 31 -16 50 -20 19 -4 42 -13 50 -20 8 -7 31 -16
50 -20 19 -4 42 -13 50 -21 9 -7 43 -16 75 -20 33 -4 71 -12 85 -19 14 -7 65
-15 114 -19 52 -4 96 -12 105 -20 9 -8 54 -16 104 -20 48 -4 109 -14 135 -23
38 -13 106 -17 363 -20 378 -5 389 -3 389 71 0 26 -5 46 -10 46 -6 0 -16 11
-22 25 -14 31 -67 65 -117 76 -20 4 -57 13 -83 18 -26 6 -129 15 -230 21 -101
5 -208 17 -238 25 -30 8 -68 15 -83 15 -15 0 -38 7 -50 15 -12 8 -49 17 -82
21 -33 3 -70 12 -82 20 -12 7 -41 17 -65 20 -24 4 -51 11 -62 16 -10 6 -51 16
-90 23 -39 8 -89 21 -111 29 -22 8 -55 15 -73 16 -18 0 -43 5 -54 11 -12 7
-44 18 -72 25 -72 18 -166 53 -190 70 -11 8 -30 14 -41 14 -11 0 -38 9 -60 20
-22 11 -46 20 -55 20 -22 0 -40 20 -40 44 0 21 115 147 223 244 31 28 57 57
57 64 0 16 120 143 181 191 25 21 54 37 63 37 9 0 24 9 33 20 10 11 25 20 35
20 10 0 27 9 38 20 11 11 29 20 39 20 11 0 22 4 26 9 6 11 93 71 101 71 3 0
27 18 53 40 39 33 58 42 102 46 70 7 147 39 173 72 37 45 65 96 66 116 0 40
-67 128 -108 140 -13 4 -41 25 -64 47 -48 46 -91 51 -151 19 -20 -11 -48 -20
-61 -20 -13 0 -34 -8 -47 -19 -13 -10 -35 -22 -49 -26 -14 -4 -32 -13 -40 -20
-8 -7 -26 -16 -40 -20 -14 -4 -36 -16 -49 -26 -13 -11 -28 -19 -32 -19 -5 0
-35 -18 -66 -40 -32 -22 -62 -40 -66 -40 -4 0 -29 -23 -55 -52 -66 -72 -85
-91 -200 -197 -56 -52 -102 -100 -102 -107 0 -7 -19 -32 -42 -56 -24 -25 -62
-66 -86 -91 -23 -26 -44 -47 -46 -47 -3 0 -1 81 14 435 7 162 7 258 1 272 -6
14 -7 54 -1 110 15 141 13 209 -10 252 -24 48 -105 118 -145 127 -16 3 -41 12
-55 19 -36 18 -112 26 -132 14z M9804 2571 c-39 -9 -77 -21 -85 -27 -8 -7 -29
-15 -48 -19 -83 -18 -206 -137 -323 -314 -10 -14 -22 -37 -28 -51 -6 -14 -26
-54 -44 -90 -25 -50 -34 -82 -38 -137 -4 -47 -12 -82 -24 -100 -18 -26 -19
-51 -19 -373 0 -298 2 -351 17 -390 9 -25 20 -61 24 -80 3 -19 15 -51 25 -70
11 -19 19 -38 19 -42 0 -19 58 -88 135 -162 112 -107 115 -109 145 -123 14 -7
32 -17 40 -22 30 -19 129 -61 145 -61 9 0 28 -8 42 -18 24 -15 54 -17 233 -17
172 0 210 3 230 16 14 9 43 19 64 23 22 4 51 16 64 27 14 10 30 19 37 19 6 0
20 9 30 20 10 11 27 20 37 20 21 0 66 30 101 69 12 13 83 85 158 160 130 131
229 258 229 296 0 10 8 27 18 38 15 17 17 43 17 236 -1 182 -3 222 -16 242 -9
13 -20 40 -24 58 -4 19 -22 56 -41 82 -18 26 -36 59 -40 73 -3 14 -12 30 -20
37 -8 6 -14 23 -14 38 0 44 -32 94 -100 154 -83 73 -75 65 -181 177 -84 89
-120 116 -254 185 -16 9 -48 27 -70 40 -22 14 -56 32 -75 41 -19 9 -42 22 -50
29 -8 7 -55 16 -105 19 -49 4 -101 8 -115 10 -14 2 -57 -4 -96 -13z m226 -276
c9 -8 26 -15 38 -15 12 0 29 -8 39 -18 10 -10 36 -30 58 -44 22 -15 71 -54
108 -88 37 -33 72 -60 78 -60 30 0 144 -107 165 -155 7 -16 29 -47 48 -68 24
-25 36 -48 36 -66 0 -16 6 -34 14 -40 8 -7 18 -31 21 -54 4 -23 13 -49 20 -57
38 -47 44 -326 8 -378 -34 -48 -61 -101 -67 -134 -8 -34 -35 -74 -125 -180
-63 -74 -113 -101 -220 -117 -42 -7 -96 -16 -121 -21 -87 -18 -166 -22 -230
-9 -36 6 -87 14 -115 16 -59 5 -135 41 -135 64 0 9 -8 27 -17 40 -49 67 -58
87 -79 182 -15 70 -16 94 -6 210 7 73 15 173 18 222 3 53 13 109 25 137 10 26
19 65 19 86 0 22 9 59 20 83 11 24 20 58 20 76 0 18 6 47 14 65 8 18 18 49 21
69 3 21 12 42 20 49 8 7 15 22 15 34 0 11 6 31 13 42 6 12 22 40 35 62 22 41
61 70 112 84 38 10 132 -1 150 -17z M5725 2354 c-27 -9 -82 -19 -121 -22 -47
-5 -79 -13 -91 -24 -11 -10 -31 -18 -45 -18 -14 0 -33 -9 -43 -20 -10 -11 -28
-20 -41 -20 -13 0 -28 -9 -34 -20 -6 -11 -18 -20 -26 -20 -15 0 -29 -9 -118
-83 -21 -17 -50 -37 -65 -43 -26 -12 -80 -70 -163 -179 -25 -33 -59 -74 -76
-90 -17 -17 -42 -52 -57 -80 -38 -72 -99 -170 -145 -236 -11 -15 -22 -39 -26
-53 -3 -14 -15 -43 -25 -63 -10 -21 -19 -45 -19 -54 0 -9 -8 -34 -17 -55 -25
-58 -32 -423 -9 -478 9 -21 16 -49 16 -61 0 -12 16 -44 35 -71 59 -82 82 -117
116 -173 34 -57 133 -161 174 -183 13 -7 45 -26 72 -43 40 -24 63 -30 133 -35
47 -4 105 -14 130 -23 60 -22 163 -21 236 2 32 10 76 21 98 24 21 4 46 13 55
20 9 8 30 18 48 22 17 3 37 12 43 20 6 7 27 16 46 20 19 3 37 12 40 20 3 8 15
17 27 21 24 8 67 37 106 73 14 12 40 30 56 38 17 9 37 22 45 30 8 7 36 33 61
56 93 85 115 105 145 138 17 19 39 49 49 66 18 31 18 36 4 75 -13 36 -22 45
-55 56 -57 19 -155 3 -219 -36 -27 -17 -65 -38 -82 -46 -18 -8 -33 -19 -33
-25 0 -5 -12 -14 -27 -20 -35 -15 -68 -34 -90 -53 -30 -25 -93 -58 -111 -58
-9 0 -30 -7 -47 -16 -41 -22 -209 -44 -249 -33 -17 5 -55 9 -83 9 -34 0 -67 7
-90 20 -21 11 -46 20 -55 20 -10 0 -47 29 -82 64 -51 52 -65 73 -71 106 -9 51
10 75 69 91 23 6 48 17 56 24 8 7 37 15 63 19 27 3 58 13 70 21 12 8 40 15 62
15 22 0 60 9 84 20 24 11 56 20 73 20 16 0 42 7 59 15 16 9 52 20 81 25 29 6
56 16 60 24 4 8 23 17 42 20 19 4 39 13 46 21 7 8 23 15 35 15 12 0 34 9 48
20 14 11 38 20 54 20 15 0 51 11 78 25 28 13 53 25 58 25 4 0 30 16 58 35 27
20 60 41 72 46 29 14 75 40 112 64 39 26 195 184 206 210 10 23 25 48 53 90
17 25 21 46 21 125 0 86 -2 98 -25 130 -60 84 -76 101 -114 127 -23 15 -70 50
-106 78 -102 79 -203 143 -228 144 -7 1 -25 10 -40 20 -18 13 -53 21 -106 26
-44 3 -87 10 -95 14 -34 18 -116 20 -166 5z m294 -298 c10 -9 29 -16 43 -16
14 0 37 -11 52 -25 15 -14 35 -25 46 -25 11 0 28 -17 44 -44 21 -36 26 -58 26
-110 0 -36 -4 -66 -9 -66 -6 0 -27 -25 -47 -56 -48 -73 -161 -184 -186 -184
-11 0 -31 -9 -45 -20 -14 -11 -34 -20 -45 -20 -10 0 -36 -9 -56 -19 -20 -11
-67 -34 -104 -51 -37 -17 -70 -35 -73 -40 -4 -6 -17 -10 -29 -10 -13 0 -35 -9
-49 -20 -14 -11 -30 -20 -36 -20 -5 0 -31 -11 -57 -25 -26 -14 -53 -25 -59
-25 -7 0 -18 -7 -25 -15 -7 -8 -27 -15 -45 -15 -18 0 -44 -9 -58 -20 -14 -11
-38 -20 -54 -20 -15 0 -46 -11 -68 -25 -64 -39 -102 -55 -135 -55 -34 0 -39
18 -15 60 8 14 14 47 15 73 0 26 8 62 17 80 9 18 18 58 19 90 2 37 9 65 18 76
9 10 16 22 16 28 0 6 23 39 51 74 28 35 62 81 75 101 38 59 206 229 241 244
17 8 34 18 38 24 3 5 17 10 29 10 13 0 34 8 47 19 13 10 47 22 74 26 28 4 58
11 68 17 54 29 245 32 276 4z M8114 2251 c-57 -4 -88 -11 -101 -23 -11 -10
-29 -18 -40 -18 -11 0 -32 -9 -46 -20 -14 -11 -29 -20 -35 -20 -5 0 -17 -9
-27 -20 -10 -11 -23 -20 -29 -20 -6 -1 -29 -19 -51 -40 -22 -22 -43 -40 -46
-40 -4 0 -20 -13 -36 -29 -259 -264 -353 -363 -353 -372 0 -10 -15 -29 -99
-124 -9 -11 -32 -50 -49 -87 -18 -36 -36 -68 -40 -70 -12 -5 -92 -105 -92
-115 0 -4 -16 -32 -35 -62 -19 -29 -35 -56 -35 -60 0 -4 -11 -22 -25 -41 -14
-19 -25 -41 -25 -49 0 -8 -7 -22 -16 -32 -29 -32 -29 -91 0 -152 14 -31 26
-62 26 -70 0 -8 17 -26 38 -41 43 -29 96 -34 126 -11 11 8 29 15 39 15 25 0
157 135 157 160 0 11 8 27 18 37 10 10 31 41 47 68 15 28 32 53 37 56 4 3 23
28 41 57 17 28 55 75 82 104 28 29 67 78 87 108 21 30 65 85 100 121 63 66
108 122 108 135 0 3 11 19 25 36 14 16 25 35 25 42 0 14 31 44 168 160 128
109 176 133 202 101 7 -8 27 -17 44 -21 33 -6 63 -32 104 -91 18 -26 22 -45
22 -116 0 -47 -6 -112 -14 -144 -8 -32 -17 -105 -21 -163 -3 -58 -12 -132 -20
-165 -8 -33 -19 -87 -25 -120 -5 -33 -16 -87 -24 -120 -14 -59 -25 -118 -51
-285 -8 -47 -19 -101 -24 -120 -15 -48 -35 -350 -27 -394 13 -69 110 -93 220
-55 27 10 56 35 101 89 88 106 105 149 105 271 0 61 5 113 14 136 8 21 17 79
21 128 3 50 13 110 21 135 9 24 18 83 21 130 3 47 14 113 25 147 19 57 20 81
16 330 -4 217 -8 276 -21 312 -10 24 -17 59 -17 78 0 18 -9 51 -20 73 -11 22
-20 46 -20 54 0 18 -58 106 -70 106 -5 0 -21 11 -36 25 -15 14 -32 25 -39 25
-7 0 -18 7 -25 15 -7 8 -23 15 -37 15 -13 0 -37 10 -53 22 -25 18 -45 22 -132
24 -57 1 -140 -1 -184 -5z"/>
</g>
</svg>
