<?xml version="1.0" standalone="no"?>
<!DOCTYPE svg PUBLIC "-//W3C//DTD SVG 20010904//EN"
 "http://www.w3.org/TR/2001/REC-SVG-20010904/DTD/svg10.dtd">
<svg version="1.0" xmlns="http://www.w3.org/2000/svg"
 width="1400.000000pt" height="296.000000pt" viewBox="0 0 1400.000000 296.000000"
 preserveAspectRatio="xMidYMid meet">
<metadata>
Created by potrace 1.16, written by Peter Selinger 2001-2019
</metadata>
<g transform="translate(0.000000,296.000000) scale(0.100000,-0.100000)"
fill="#000000" stroke="none">
<path d="M540 2108 c-25 -11 -66 -31 -91 -44 -59 -30 -70 -30 -97 0 -27 32
-87 44 -121 25 -25 -14 -26 -19 -32 -134 -4 -66 -11 -138 -17 -160 -19 -75
-30 -140 -37 -215 -4 -41 -12 -81 -18 -88 -6 -8 -14 -62 -18 -120 -4 -59 -14
-125 -22 -148 -21 -57 -44 -330 -30 -352 15 -25 68 -27 91 -4 14 14 20 40 26
110 4 50 13 110 21 133 8 23 15 69 15 103 0 104 39 132 109 78 20 -16 67 -44
106 -63 67 -32 75 -34 180 -34 95 0 115 4 150 23 22 12 45 22 51 22 13 0 137
80 142 92 2 4 26 40 53 80 27 40 49 83 49 95 0 13 10 51 22 85 28 80 28 188 0
250 -10 24 -21 54 -25 68 -8 32 -148 180 -170 180 -9 0 -31 9 -49 20 -48 29
-223 28 -288 -2z m244 -110 c47 -24 133 -102 150 -138 32 -62 26 -270 -10
-346 -26 -56 -142 -171 -179 -179 -16 -3 -43 -11 -60 -17 -16 -6 -60 -13 -96
-15 -97 -6 -179 24 -247 90 -30 29 -60 64 -68 79 -19 37 -18 121 5 209 11 42
22 97 26 123 13 81 95 153 231 200 57 20 81 23 139 19 39 -3 87 -14 109 -25z
M1570 2110 c-19 -11 -42 -19 -51 -20 -20 0 -69 -52 -69 -73 0 -34 42 -41 116
-19 194 59 372 22 430 -89 17 -34 19 -160 2 -177 -18 -18 -89 -14 -131 7 -93
47 -314 49 -405 2 -23 -12 -48 -21 -55 -21 -22 0 -64 -37 -98 -86 -56 -81 -59
-235 -5 -307 23 -31 93 -84 147 -113 22 -11 66 -19 124 -22 81 -4 96 -2 152
22 34 14 69 26 76 26 8 0 26 9 40 20 17 13 40 20 70 20 29 0 53 -7 70 -20 14
-11 30 -20 35 -20 5 0 16 -7 23 -16 28 -33 58 -36 105 -8 51 30 62 69 20 80
-13 3 -38 21 -56 39 l-33 34 7 108 c4 59 14 131 23 158 12 36 17 87 17 181 l1
132 -31 43 c-23 32 -55 56 -120 91 l-89 48 -140 -1 c-119 0 -145 -3 -175 -19z
m245 -449 c135 -36 155 -53 155 -138 0 -54 -2 -59 -44 -99 -25 -24 -83 -61
-133 -84 l-88 -42 -92 5 c-107 7 -155 27 -202 84 -27 33 -31 45 -31 97 0 55 3
62 46 112 53 63 85 74 269 92 6 1 59 -11 120 -27z M9635 2111 c-22 -10 -57
-26 -77 -35 -42 -17 -59 -56 -37 -82 15 -18 84 -13 141 10 58 24 171 31 231
13 28 -8 64 -18 79 -21 14 -3 40 -17 57 -31 38 -33 57 -114 45 -189 l-9 -51
-53 -3 c-39 -2 -61 2 -85 17 -53 32 -171 46 -279 32 -150 -19 -245 -80 -296
-190 -38 -82 -39 -127 -7 -198 31 -70 79 -120 150 -159 43 -24 64 -28 155 -32
122 -5 163 4 244 53 65 39 124 47 147 18 20 -24 114 -63 152 -63 42 0 57 15
57 57 0 28 -5 35 -37 50 -33 15 -41 26 -57 76 -18 55 -18 61 -2 93 9 19 16 59
16 88 0 30 9 98 20 151 25 121 25 150 1 211 -11 27 -22 60 -25 74 -8 38 -61
90 -91 90 -14 0 -51 9 -82 20 -79 28 -298 28 -358 1z m305 -459 c89 -36 110
-59 110 -117 0 -74 -34 -121 -130 -179 l-85 -51 -135 -3 c-155 -4 -175 3 -230
79 -26 36 -30 51 -30 106 0 89 19 119 102 163 60 32 106 40 218 36 89 -3 117
-9 180 -34z M13303 2115 c-97 -24 -148 -84 -107 -126 16 -15 25 -17 49 -10
125 39 155 45 238 43 173 -3 267 -80 267 -220 0 -66 -13 -82 -66 -82 -31 0
-54 7 -71 20 -14 11 -40 20 -58 20 -17 0 -57 5 -89 12 -75 15 -248 -5 -288
-33 -15 -11 -31 -19 -36 -19 -4 0 -26 -13 -48 -29 -56 -42 -91 -111 -95 -186
-4 -103 -2 -110 60 -188 81 -101 126 -122 271 -122 95 0 110 3 156 28 29 15
58 27 65 27 8 0 32 12 54 25 53 33 65 32 106 -11 44 -46 79 -64 126 -64 84 0
113 68 44 102 -63 31 -76 52 -75 116 1 31 9 87 18 123 15 60 24 118 43 285 6
60 -8 112 -45 167 -25 37 -53 56 -132 92 -19 9 -47 22 -62 30 -33 19 -249 19
-325 0z m170 -440 c20 -8 50 -15 67 -15 17 0 46 -11 63 -24 18 -13 42 -27 55
-31 27 -8 42 -41 42 -95 0 -32 -7 -45 -45 -82 -51 -48 -100 -78 -130 -78 -11
0 -45 -12 -75 -26 -47 -22 -64 -25 -115 -20 -75 8 -166 51 -193 91 -11 16 -23
52 -27 78 -6 43 -3 54 21 88 32 47 107 99 143 99 14 1 40 7 56 15 40 18 95 18
138 0z M8630 2101 c-107 -7 -120 -12 -120 -46 0 -43 36 -57 147 -54 107 3 139
-7 149 -45 3 -14 -1 -38 -11 -56 -10 -18 -14 -42 -11 -56 4 -13 -1 -62 -9
-110 -8 -48 -15 -118 -15 -156 0 -45 -7 -85 -19 -116 -11 -26 -22 -83 -25
-126 -7 -90 5 -116 55 -116 37 0 59 33 59 86 0 44 16 134 30 169 5 11 11 57
14 101 4 45 15 108 26 139 15 43 20 84 20 156 0 123 -2 122 175 126 124 3 131
5 153 29 12 14 22 29 22 34 0 18 -53 50 -73 44 -22 -7 -361 -8 -430 -1 -23 2
-85 1 -137 -2z M10649 2100 c-33 -19 -59 -105 -69 -227 -5 -65 -17 -138 -26
-163 -9 -25 -19 -99 -24 -165 -5 -74 -14 -136 -25 -160 -9 -22 -17 -61 -18
-87 -3 -83 -13 -80 340 -85 169 -2 331 -3 358 -1 55 2 98 1 160 -2 22 -1 99
-1 170 0 139 2 194 15 196 47 1 10 3 39 5 65 2 25 12 74 23 109 13 38 21 90
21 133 1 39 5 91 11 116 33 152 60 370 48 392 -14 25 -47 32 -74 14 -26 -17
-36 -47 -54 -166 -6 -41 -16 -100 -21 -130 -5 -30 -15 -104 -21 -165 -6 -60
-18 -123 -26 -140 -9 -16 -18 -52 -22 -79 -5 -43 -11 -54 -41 -74 -30 -20 -42
-23 -85 -16 -27 4 -59 6 -70 6 -101 -4 -180 0 -191 9 -19 16 -19 216 1 288 8
30 17 86 21 125 3 39 17 117 30 173 27 115 29 136 14 164 -12 22 -57 26 -84 6
-24 -18 -56 -111 -56 -165 0 -23 -6 -55 -13 -70 -14 -28 -32 -153 -43 -307 -4
-57 -12 -96 -21 -107 -8 -9 -17 -35 -20 -57 -3 -23 -11 -45 -17 -49 -6 -4 -85
-8 -176 -8 -225 -2 -215 -10 -206 154 5 82 13 136 23 156 9 17 19 74 24 131 4
55 12 114 17 132 6 17 13 65 17 106 l7 75 -30 16 c-36 18 -32 18 -53 6z M2565
2076 c-15 -15 -25 -40 -29 -67 -9 -78 -26 -183 -36 -234 -6 -27 -15 -99 -20
-158 -6 -60 -17 -118 -24 -130 -20 -32 -30 -238 -12 -262 12 -16 17 -17 44 -6
17 7 36 19 42 26 5 7 16 57 24 111 8 54 19 112 25 127 6 16 11 43 11 62 0 65
2 65 295 65 226 0 266 -2 279 -16 20 -19 20 -10 -8 -96 -14 -42 -26 -110 -29
-160 -5 -76 -4 -90 13 -110 l19 -23 38 21 38 22 7 88 c4 48 13 106 22 128 8
23 18 70 21 106 4 36 13 92 21 125 7 33 18 101 24 150 5 50 15 118 22 152 10
56 10 64 -7 83 -37 41 -100 14 -110 -48 -3 -20 -18 -81 -32 -134 -14 -54 -23
-108 -20 -120 3 -11 2 -30 -4 -40 -9 -17 -27 -18 -262 -18 -184 0 -256 3 -265
12 -18 18 -15 171 5 257 l17 73 -23 19 c-31 25 -57 24 -86 -5z M3712 2084
c-15 -10 -22 -26 -22 -47 0 -18 -9 -60 -20 -94 -10 -34 -23 -104 -29 -155 -5
-51 -14 -104 -20 -118 -6 -14 -15 -79 -20 -145 -5 -66 -17 -140 -25 -164 -19
-52 -21 -112 -4 -129 16 -16 49 -15 75 3 28 20 63 126 63 193 0 65 17 141 38
165 14 15 40 17 272 17 223 0 259 -2 271 -16 17 -20 -1 -203 -27 -282 -20 -61
-14 -81 30 -97 18 -6 33 -6 44 1 29 19 58 125 65 236 3 57 13 122 21 146 8 23
18 77 22 120 3 42 14 104 24 137 10 33 21 94 24 136 8 83 -3 109 -45 109 -54
0 -62 -16 -103 -223 -14 -71 -30 -125 -41 -137 -17 -19 -32 -20 -260 -20 -222
0 -243 2 -258 18 -21 23 -21 49 -2 95 10 25 15 71 15 141 0 94 -2 106 -19 116
-27 14 -43 13 -69 -6z M5008 2093 c-58 -6 -156 -77 -202 -147 -34 -50 -40 -68
-43 -124 -4 -84 20 -136 93 -199 74 -64 74 -88 -3 -180 -32 -37 -84 -93 -115
-124 -81 -78 -78 -125 6 -98 43 14 162 126 213 201 13 20 38 41 54 47 20 7 33
21 40 41 6 17 19 35 29 40 24 13 250 13 270 0 18 -11 16 -125 -4 -178 -33 -88
-26 -140 21 -161 34 -16 53 -2 86 62 21 43 27 68 27 121 0 42 5 75 15 89 10
15 18 74 25 182 6 87 17 182 25 210 8 27 19 79 25 113 10 54 9 67 -5 88 l-15
24 -253 -2 c-138 -1 -269 -3 -289 -5z m413 -90 c17 -19 17 -124 0 -233 -16
-106 -29 -116 -168 -125 -74 -6 -124 -4 -158 4 -27 7 -74 15 -104 19 -62 8
-83 29 -102 103 -11 41 -10 52 14 115 26 68 29 71 90 101 l62 32 176 0 c152 1
178 -1 190 -16z M6080 2090 c-79 -13 -175 -87 -200 -154 -7 -17 -21 -53 -31
-79 -35 -84 -9 -151 92 -239 40 -34 59 -58 59 -74 0 -15 -36 -62 -107 -139
-130 -141 -135 -148 -127 -168 16 -44 97 -17 152 50 37 44 107 121 191 211
l60 62 124 0 c100 0 127 -3 137 -16 11 -12 11 -42 3 -147 -12 -155 -6 -177 51
-177 18 0 38 6 44 13 5 6 13 57 17 112 3 55 11 118 17 140 23 94 27 115 38
215 6 58 17 130 25 160 7 30 16 92 20 137 6 73 4 83 -12 91 -22 11 -490 13
-553 2z m406 -91 c44 -27 51 -56 25 -107 -13 -25 -24 -73 -28 -123 -7 -72 -11
-84 -34 -101 -34 -26 -104 -32 -135 -11 -21 13 -31 14 -68 3 -25 -7 -62 -10
-83 -7 -74 11 -128 23 -149 35 -31 16 -54 72 -54 130 0 59 33 111 99 156 41
29 45 30 214 36 95 4 174 7 176 8 2 1 19 -7 37 -19z M7493 2085 c-18 -12 -22
-29 -28 -107 -4 -51 -13 -109 -20 -128 -12 -32 -25 -126 -40 -285 -3 -33 -12
-80 -19 -105 -7 -25 -17 -81 -21 -126 -6 -69 -4 -83 10 -98 26 -25 76 -17 91
14 19 39 45 185 55 300 4 58 17 143 28 190 12 47 21 113 21 146 0 47 5 68 21
88 20 25 23 26 97 20 43 -3 149 -1 237 5 148 9 162 9 185 -8 32 -23 35 -53 16
-129 -9 -33 -16 -84 -16 -114 0 -29 -5 -69 -11 -88 -6 -19 -19 -89 -31 -155
-41 -246 -42 -254 -28 -270 22 -26 60 -18 96 21 32 33 34 39 34 108 0 48 7 92
21 131 14 39 24 103 30 184 6 79 15 135 25 155 23 45 35 214 17 244 l-13 22
-368 0 c-308 0 -371 -2 -389 -15z M12179 2088 c-33 -27 -50 -104 -59 -270 -6
-104 -17 -190 -30 -238 -11 -41 -20 -91 -20 -111 0 -20 -6 -54 -14 -75 -21
-61 -29 -139 -16 -163 16 -32 63 -28 93 8 29 35 33 53 64 304 10 81 67 90 135
20 20 -21 67 -70 105 -108 37 -39 100 -104 138 -146 77 -83 133 -111 174 -90
11 7 21 19 21 28 0 13 -122 147 -310 339 -47 47 -50 53 -50 101 0 56 8 68 69
109 56 37 92 64 174 129 42 33 99 77 126 98 54 41 58 61 12 70 -45 9 -98 -8
-148 -50 -27 -21 -70 -54 -98 -73 -27 -18 -65 -51 -83 -71 -18 -21 -48 -43
-66 -49 -19 -6 -40 -18 -46 -26 -17 -19 -89 -19 -97 1 -3 9 -1 35 5 58 20 77
23 185 6 202 -19 18 -65 20 -85 3z"/>
</g>
</svg>
