<?xml version="1.0" standalone="no"?>
<!DOCTYPE svg PUBLIC "-//W3C//DTD SVG 20010904//EN"
 "http://www.w3.org/TR/2001/REC-SVG-20010904/DTD/svg10.dtd">
<svg version="1.0" xmlns="http://www.w3.org/2000/svg"
 width="5556.000000pt" height="525.000000pt" viewBox="0 0 5556.000000 525.000000"
 preserveAspectRatio="xMidYMid meet">
<metadata>
Created by potrace 1.16, written by Peter Selinger 2001-2019
</metadata>
<g transform="translate(0.000000,525.000000) scale(0.100000,-0.100000)"
fill="#000000" stroke="none">
<path d="M2570 5241 c-8 -5 -37 -13 -65 -16 -366 -47 -733 -214 -982 -446 -28
-27 -61 -49 -72 -49 -40 0 -42 29 -15 200 34 218 56 200 -241 200 -284 0 -269
7 -291 -130 -9 -52 -24 -147 -35 -210 -10 -63 -30 -185 -44 -270 -14 -85 -47
-279 -75 -430 -27 -151 -54 -302 -59 -335 -19 -115 -131 -771 -161 -940 -17
-93 -46 -264 -65 -380 -20 -115 -51 -291 -70 -390 -19 -99 -46 -247 -60 -330
-14 -82 -48 -265 -75 -405 -61 -319 -92 -487 -130 -710 -16 -96 -45 -253 -64
-347 -53 -266 -66 -253 245 -253 l237 0 21 43 c12 24 21 51 21 60 0 9 20 123
45 254 24 131 56 301 69 378 43 244 76 425 106 575 16 80 38 204 50 275 46
281 83 460 100 478 24 26 40 15 109 -72 140 -178 313 -323 491 -411 276 -138
513 -194 806 -193 427 2 741 88 1049 286 261 168 387 292 576 567 232 337 378
819 379 1250 0 348 -117 780 -273 1010 -263 386 -616 616 -1077 704 -47 8
-110 21 -140 27 -73 15 -291 22 -310 10z m311 -530 c253 -53 498 -193 634
-362 136 -169 205 -311 251 -508 107 -471 5 -968 -285 -1381 -175 -248 -476
-453 -791 -537 -102 -27 -111 -28 -370 -28 -285 0 -293 1 -515 72 -327 104
-680 458 -736 740 -14 69 -16 49 53 463 21 129 43 262 49 295 5 33 20 116 34
185 13 69 27 148 30 175 10 71 34 175 47 198 24 45 139 179 243 282 241 240
485 358 885 429 67 12 379 -3 471 -23z"/>
<path d="M6840 5229 c-277 -14 -584 -74 -873 -171 -214 -71 -225 -81 -250
-219 -33 -184 -47 -280 -47 -319 0 -52 23 -53 145 -4 220 88 475 163 680 201
144 26 607 26 745 0 279 -53 434 -126 557 -261 110 -120 173 -292 173 -472 0
-88 -46 -391 -75 -490 -23 -81 -24 -81 -185 16 -230 139 -468 221 -815 281
-172 30 -573 33 -725 5 -347 -62 -533 -131 -755 -278 -420 -278 -610 -891
-428 -1378 103 -276 213 -404 484 -563 383 -224 838 -257 1404 -102 235 64
464 199 680 400 89 83 105 81 136 -13 48 -145 90 -204 221 -302 122 -92 227
-123 418 -124 108 0 167 5 229 19 113 25 131 41 141 130 5 39 16 117 25 173
23 148 17 158 -82 142 -163 -27 -278 -5 -353 68 -56 55 -70 94 -70 202 0 68
11 144 86 570 14 80 32 186 39 236 8 49 35 196 60 325 25 129 50 263 55 299 5
36 20 137 33 225 74 492 -69 872 -417 1109 -237 162 -581 270 -921 291 -55 3
-113 7 -130 9 -16 2 -100 -1 -185 -5z m115 -1887 c28 -6 88 -18 135 -27 252
-49 641 -231 706 -330 15 -23 15 -34 -5 -152 -12 -71 -29 -169 -37 -220 -19
-113 -39 -145 -165 -273 -189 -192 -489 -359 -783 -435 -288 -74 -637 -59
-885 40 -407 161 -563 568 -369 965 101 207 404 390 726 440 81 12 616 6 677
-8z"/>
<path d="M38875 5228 c-328 -31 -925 -187 -989 -256 -16 -18 -29 -83 -62 -292
-22 -139 -23 -190 -4 -202 11 -7 46 1 125 32 284 109 398 146 535 175 402 85
862 72 1135 -30 311 -117 465 -335 465 -660 0 -154 -53 -508 -82 -542 -18 -22
-45 -15 -120 34 -215 140 -520 244 -884 304 -157 25 -549 31 -674 10 -347 -59
-512 -117 -735 -257 -519 -326 -693 -1049 -385 -1600 93 -166 326 -359 543
-451 223 -94 563 -134 852 -99 461 56 769 193 1072 479 108 101 121 101 143
-5 36 -177 193 -338 394 -405 73 -24 95 -27 226 -27 248 1 370 42 370 127 0
16 9 88 21 159 12 71 18 139 15 153 l-6 24 -138 -6 c-169 -7 -222 6 -288 72
-68 69 -87 158 -63 304 36 224 73 435 158 901 16 91 44 248 60 350 16 102 38
232 48 290 28 168 23 445 -10 572 -76 285 -232 470 -537 636 -294 160 -793
248 -1185 210z m190 -1888 c310 -67 435 -109 640 -214 136 -69 215 -135 215
-179 0 -15 -6 -66 -14 -114 -8 -49 -22 -137 -32 -198 -22 -138 -25 -145 -140
-270 -208 -228 -539 -406 -887 -477 -174 -36 -500 -34 -644 4 -189 49 -349
140 -457 260 -240 265 -177 762 126 984 151 111 309 174 548 218 57 10 586 -1
645 -14z"/>
<path d="M53605 5228 c-314 -24 -572 -80 -876 -188 -130 -46 -154 -63 -167
-118 -17 -70 -72 -397 -72 -424 0 -40 28 -37 146 16 325 143 650 216 1007 223
438 10 706 -58 903 -227 127 -109 181 -204 214 -379 24 -126 19 -258 -20 -467
-50 -274 -40 -265 -192 -167 -170 110 -452 223 -653 262 -248 48 -304 54 -560
54 -551 1 -945 -130 -1249 -414 -442 -412 -462 -1261 -39 -1649 285 -261 581
-366 1033 -365 251 1 416 30 695 121 207 68 404 192 605 380 44 41 84 74 89
74 17 0 31 -27 41 -79 26 -139 162 -309 300 -374 117 -55 195 -71 350 -71 154
0 275 22 316 57 22 19 27 37 40 127 7 58 19 128 25 155 29 134 27 138 -56 124
-28 -4 -95 -8 -150 -8 -90 -1 -106 2 -160 27 -143 68 -166 149 -125 432 19
136 32 210 89 525 177 985 206 1233 166 1425 -21 103 -96 294 -142 363 -260
386 -897 617 -1558 565z m221 -1897 c261 -49 591 -183 732 -298 61 -49 65 -63
53 -141 -6 -37 -20 -123 -31 -192 -34 -208 -38 -216 -142 -326 -306 -320 -713
-496 -1178 -511 -356 -11 -656 93 -814 282 -116 140 -151 244 -150 440 1 217
58 361 196 490 151 143 274 203 538 261 145 32 616 29 796 -5z"/>
<path d="M10161 5111 c-18 -18 -22 -38 -66 -306 -9 -49 -22 -126 -30 -170 -33
-177 -97 -544 -106 -605 -5 -36 -22 -135 -39 -220 -38 -204 -85 -469 -105
-600 -9 -58 -27 -161 -40 -230 -13 -69 -38 -208 -55 -310 -17 -102 -49 -284
-71 -405 -38 -207 -79 -445 -117 -667 -22 -137 -39 -128 242 -128 291 0 279
-6 306 170 6 36 26 155 45 265 20 110 65 376 100 590 95 574 95 573 115 598
l18 22 1069 2 c857 2 1073 0 1093 -10 34 -18 32 -101 -8 -312 -17 -88 -45
-239 -62 -335 -17 -96 -44 -242 -60 -325 -54 -288 -89 -480 -95 -525 -3 -25
-8 -59 -11 -76 -11 -61 0 -64 261 -64 207 0 235 2 254 17 22 19 28 45 92 413
16 96 41 236 55 310 14 74 41 225 60 335 19 110 43 243 54 295 10 52 26 140
35 195 34 217 85 512 165 955 17 91 37 206 46 255 21 119 37 207 73 400 16 88
40 227 52 309 22 145 22 149 4 162 -23 17 -474 20 -505 4 -22 -12 -43 -77 -64
-200 -51 -294 -110 -643 -127 -750 -76 -483 -90 -547 -126 -561 -14 -5 -445
-9 -1074 -9 l-1050 0 -24 25 c-29 29 -32 63 -11 168 29 148 45 234 51 287 4
30 15 96 25 145 41 203 124 701 136 819 9 88 14 86 -260 86 -207 0 -228 -2
-245 -19z"/>
<path d="M14725 5105 c-14 -13 -25 -33 -25 -44 0 -11 -6 -56 -14 -98 -25 -134
-38 -205 -52 -298 -27 -166 -42 -259 -74 -440 -17 -99 -36 -209 -41 -245 -5
-36 -20 -126 -34 -200 -24 -129 -71 -394 -100 -565 -8 -44 -30 -165 -50 -270
-20 -104 -47 -248 -60 -320 -13 -71 -36 -191 -49 -265 -25 -131 -72 -396 -101
-571 -8 -47 -21 -118 -30 -158 -18 -87 -19 -133 -3 -149 13 -13 475 -18 493
-4 33 24 37 43 115 472 17 96 44 245 60 330 15 85 36 202 45 260 9 58 23 139
31 180 7 41 23 131 34 200 26 155 34 176 72 189 55 20 2128 15 2156 -5 29 -20
29 -63 -3 -229 -13 -71 -33 -184 -44 -250 -11 -66 -36 -203 -56 -305 -19 -102
-47 -248 -60 -325 -14 -77 -36 -203 -50 -280 -31 -174 -32 -221 -6 -235 12 -6
110 -10 250 -10 218 0 232 1 251 20 11 11 20 32 20 46 0 14 4 44 10 67 20 88
43 218 65 372 14 88 38 232 54 320 17 88 42 230 56 315 15 85 39 223 55 305
15 83 36 193 44 245 19 108 50 287 72 405 8 44 28 159 44 255 17 96 37 211 45
255 14 76 61 363 140 845 22 137 22 180 0 196 -15 11 -70 14 -247 14 -277 0
-267 5 -286 -130 -7 -47 -22 -137 -33 -200 -42 -240 -50 -292 -94 -560 -77
-473 -101 -591 -125 -614 -21 -21 -22 -21 -1063 -24 -727 -2 -1053 0 -1079 8
-52 15 -54 33 -24 212 14 84 33 196 42 248 27 159 45 261 59 340 27 143 43
236 60 340 9 58 22 142 30 187 21 116 20 170 -4 183 -12 6 -109 10 -246 10
l-226 0 -24 -25z"/>
<path d="M20105 5113 c-270 -38 -511 -120 -664 -227 -266 -185 -407 -382 -494
-691 -32 -116 -36 -442 -6 -561 83 -330 245 -506 601 -653 129 -54 128 -61
-26 -221 -62 -63 -145 -153 -186 -200 -41 -47 -140 -155 -220 -241 -80 -85
-206 -223 -280 -304 -180 -199 -249 -274 -346 -375 -167 -175 -173 -170 186
-170 153 0 285 3 293 6 15 5 227 234 517 559 279 311 696 757 734 785 33 24
1077 28 1100 5 20 -20 20 -49 1 -145 -8 -41 -24 -133 -36 -205 -12 -71 -34
-204 -50 -295 -70 -398 -109 -637 -109 -662 0 -44 21 -48 263 -48 199 0 227 2
246 18 17 14 26 46 46 167 25 144 50 291 80 460 8 44 24 139 35 210 31 197 56
343 111 645 28 151 61 336 74 410 13 74 44 243 70 375 25 132 57 305 71 385
13 80 31 181 39 225 8 44 28 161 45 260 78 450 80 467 49 489 -33 22 -1982 22
-2144 -1z m1471 -459 c55 -7 78 -32 71 -81 -4 -40 -49 -309 -66 -403 -6 -30
-13 -80 -17 -110 -3 -30 -23 -143 -44 -250 -22 -107 -42 -220 -46 -250 -15
-118 -43 -225 -64 -242 -33 -27 -117 -33 -450 -32 -652 2 -928 11 -1010 32
-224 59 -359 153 -438 306 l-37 71 0 190 0 190 33 82 c123 304 346 454 747
499 108 12 1221 11 1321 -2z"/>
<path d="M24459 5125 c-3 -2 -47 -9 -99 -15 -197 -23 -387 -80 -550 -167 -126
-67 -194 -119 -306 -234 -96 -100 -104 -111 -176 -259 -77 -156 -90 -198 -124
-388 -60 -339 56 -708 279 -891 66 -55 233 -145 345 -187 78 -30 92 -40 92
-65 0 -19 -119 -156 -345 -397 -71 -76 -215 -232 -320 -347 -104 -115 -244
-267 -310 -338 -160 -172 -295 -326 -295 -335 0 -29 30 -32 313 -32 l289 0 37
38 c91 97 288 317 574 640 53 61 136 153 185 204 48 52 163 179 256 282 93
103 180 192 193 197 14 5 257 9 548 9 628 0 575 12 556 -131 -7 -52 -23 -152
-36 -224 -13 -71 -35 -200 -49 -285 -31 -194 -73 -434 -92 -523 -21 -102 -19
-184 5 -197 12 -6 110 -10 249 -10 209 0 230 2 245 18 10 10 17 26 17 34 0 9
11 72 24 140 13 68 35 193 50 278 23 140 62 367 117 675 11 61 24 139 29 175
22 162 54 360 86 530 38 204 55 305 79 455 9 55 23 136 31 180 61 334 84 468
99 565 8 47 25 150 38 230 59 344 59 346 31 367 -17 13 -2053 21 -2065 8z
m1051 -464 c201 -5 373 -12 383 -16 43 -18 42 -40 -8 -315 -13 -69 -40 -224
-60 -345 -98 -603 -105 -639 -126 -660 -18 -19 -37 -20 -267 -26 -136 -4 -360
-10 -497 -14 -510 -16 -776 28 -972 158 -193 128 -255 319 -204 629 52 316
316 537 691 578 58 6 107 13 109 16 7 6 542 3 951 -5z"/>
<path d="M29778 5110 c-22 -16 -29 -39 -51 -157 -55 -291 -77 -422 -88 -504
-5 -46 -23 -154 -39 -239 -53 -293 -79 -435 -110 -615 -52 -299 -88 -498 -136
-755 -25 -135 -52 -279 -59 -320 -8 -41 -27 -147 -43 -235 -17 -88 -38 -207
-47 -265 -9 -58 -30 -177 -46 -265 -35 -194 -37 -260 -10 -275 12 -6 109 -10
245 -10 261 0 258 -1 270 91 4 30 13 90 21 134 38 202 87 477 100 550 8 44 32
177 54 295 22 118 60 328 85 465 25 138 50 273 55 300 10 51 35 190 70 395 11
63 33 187 50 275 17 88 35 189 42 225 56 318 79 415 100 432 20 17 85 18 1058
18 1200 0 1087 11 1076 -104 -6 -66 -11 -101 -50 -311 -8 -44 -22 -120 -30
-170 -9 -49 -22 -124 -30 -165 -16 -89 -38 -210 -61 -335 -8 -49 -28 -157 -44
-240 -16 -82 -36 -193 -45 -245 -9 -52 -22 -126 -30 -165 -7 -38 -21 -115 -30
-170 -18 -108 -67 -376 -90 -490 -7 -38 -21 -115 -30 -170 -9 -55 -25 -145
-35 -200 -52 -285 -65 -375 -54 -393 18 -27 483 -31 507 -4 24 27 67 238 113
557 7 55 20 134 28 175 8 41 24 127 35 190 12 63 28 147 36 185 7 39 23 122
35 185 12 63 39 207 60 320 22 113 46 241 55 285 8 44 28 150 44 235 16 85 37
196 46 245 9 50 29 160 45 245 17 85 41 225 55 310 14 85 32 191 41 235 17 88
38 226 56 353 18 138 230 122 -1612 122 -1562 0 -1588 0 -1612 -20z"/>
<path d="M33840 5112 c-14 -11 -26 -35 -30 -63 -4 -24 -20 -116 -35 -203 l-28
-159 23 -19 c22 -18 51 -18 623 -17 712 1 648 14 628 -128 -7 -48 -20 -119
-27 -158 -8 -38 -37 -200 -64 -360 -27 -159 -67 -389 -89 -510 -22 -121 -56
-312 -75 -425 -20 -113 -79 -432 -131 -710 -53 -278 -103 -550 -111 -605 -8
-55 -22 -131 -30 -170 -17 -86 -17 -80 2 -99 13 -14 51 -16 255 -16 276 0 272
-1 284 91 7 58 33 204 119 669 48 255 87 469 141 770 7 41 20 116 29 165 39
236 126 725 171 970 13 72 33 189 45 260 26 161 45 232 68 243 9 5 296 12 637
16 l620 6 20 23 c20 23 30 62 60 245 21 129 20 179 -4 192 -13 7 -514 10
-1549 10 -1463 0 -1531 -1 -1552 -18z"/>
<path d="M42281 5111 c-18 -18 -24 -39 -50 -191 -25 -143 -103 -598 -111 -650
-5 -30 -16 -95 -25 -145 -9 -49 -36 -207 -60 -350 -48 -286 -90 -525 -105
-595 -15 -76 -91 -485 -126 -685 -8 -49 -22 -124 -29 -165 -8 -41 -28 -156
-45 -255 -18 -99 -44 -250 -60 -335 -40 -220 -40 -225 -24 -249 l15 -21 2455
0 c1645 0 2462 3 2474 10 24 13 34 48 65 237 28 165 45 258 111 608 25 132 56
299 69 370 13 72 38 202 54 290 29 155 47 259 71 415 7 41 36 206 66 365 30
160 70 373 89 475 19 102 48 255 65 340 36 182 80 460 80 501 0 46 -19 49
-274 49 -283 0 -264 9 -290 -136 -10 -54 -28 -153 -41 -219 -13 -66 -26 -142
-30 -170 -4 -27 -20 -120 -36 -205 -39 -209 -139 -762 -149 -830 -5 -30 -16
-95 -25 -145 -9 -49 -22 -126 -30 -170 -7 -44 -23 -134 -35 -200 -12 -66 -25
-142 -30 -170 -5 -27 -20 -108 -33 -180 -14 -71 -33 -173 -42 -225 -65 -369
-88 -482 -106 -504 l-17 -21 -779 -3 c-526 -2 -790 0 -814 8 -56 16 -56 25 -9
285 12 66 25 146 30 177 5 31 13 81 19 110 5 29 17 96 26 148 26 151 44 254
75 410 15 80 31 163 34 185 4 22 18 99 31 170 65 347 109 587 121 660 13 85
27 160 69 400 53 298 66 372 80 480 21 153 35 145 -245 145 -120 0 -230 -4
-245 -10 -35 -13 -42 -38 -75 -250 -28 -179 -40 -248 -136 -790 -41 -235 -92
-523 -159 -905 -14 -82 -48 -278 -75 -435 -27 -157 -64 -370 -83 -475 -20
-104 -38 -209 -42 -232 -13 -84 52 -78 -824 -81 -427 -1 -786 0 -798 3 -41 10
-55 44 -43 106 6 30 28 158 50 284 51 298 175 1017 194 1120 8 44 28 159 45
255 18 96 63 351 102 565 38 215 86 484 106 599 l37 209 -23 18 c-36 29 -481
29 -510 0z"/>
<path d="M48540 5110 c-11 -11 -22 -30 -24 -42 -10 -51 -165 -932 -202 -1148
-13 -80 -38 -212 -54 -295 -16 -82 -36 -190 -45 -240 -15 -82 -110 -581 -185
-965 -51 -261 -162 -853 -167 -888 -9 -61 -6 -62 262 -62 l244 0 20 26 c12 15
21 35 21 44 0 20 43 256 126 680 30 157 64 332 74 390 11 58 26 134 34 170 8
36 22 112 31 170 45 283 64 343 104 324 22 -10 275 -274 465 -483 66 -74 198
-218 291 -321 94 -103 272 -301 397 -441 340 -380 491 -541 513 -550 24 -9
626 -12 649 -3 41 16 1 74 -183 269 -53 55 -150 161 -216 235 -66 74 -178 196
-250 270 -72 74 -193 205 -270 290 -76 85 -189 209 -250 275 -62 66 -148 161
-192 210 -44 50 -148 161 -231 249 -84 87 -154 168 -158 179 -4 14 2 27 22 47
29 27 324 245 419 310 28 19 124 91 215 160 91 69 206 153 255 187 50 34 141
102 202 152 106 84 432 330 553 416 30 22 96 72 145 111 50 39 129 99 177 133
47 33 104 77 125 97 65 62 53 64 -323 64 -178 0 -333 -4 -346 -9 -33 -12 -215
-144 -393 -284 -82 -65 -231 -176 -330 -247 -99 -71 -227 -167 -285 -213 -58
-45 -179 -138 -270 -204 -91 -67 -219 -165 -285 -218 -155 -123 -343 -255
-365 -255 -44 0 -44 72 0 275 4 22 15 76 24 120 8 44 22 114 30 155 8 41 20
109 26 150 9 68 59 335 95 515 45 225 57 215 -247 215 -214 0 -229 -1 -248
-20z"/>
</g>
</svg>
