<?xml version="1.0" standalone="no"?>
<!DOCTYPE svg PUBLIC "-//W3C//DTD SVG 20010904//EN"
 "http://www.w3.org/TR/2001/REC-SVG-20010904/DTD/svg10.dtd">
<svg version="1.0" xmlns="http://www.w3.org/2000/svg"
 width="2100.000000pt" height="444.000000pt" viewBox="0 0 2100.000000 444.000000"
 preserveAspectRatio="xMidYMid meet">
<metadata>
Created by potrace 1.16, written by Peter Selinger 2001-2019
</metadata>
<g transform="translate(0.000000,444.000000) scale(0.100000,-0.100000)"
fill="#000000" stroke="none">
<path d="M2500 3190 c-184 -16 -322 -119 -234 -176 24 -16 32 -16 150 6 150
27 279 24 389 -10 160 -50 257 -227 195 -356 -39 -81 -104 -91 -244 -41 -89
31 -94 32 -261 32 -188 -1 -233 -9 -360 -70 -92 -44 -145 -91 -182 -162 -93
-175 -59 -369 85 -489 185 -153 367 -171 630 -62 172 72 216 72 352 4 79 -40
102 -47 135 -42 80 10 98 76 40 148 -87 106 -96 220 -40 473 46 209 44 409 -6
507 -33 65 -95 115 -213 174 -144 71 -220 82 -436 64z m169 -676 c173 -36 229
-68 265 -156 37 -88 10 -165 -88 -255 -113 -103 -235 -153 -378 -153 -204 0
-340 71 -383 201 -53 158 61 316 260 362 142 33 169 33 324 1z"/>
<path d="M870 3171 c-30 -10 -85 -33 -122 -50 -99 -45 -133 -48 -222 -17 -170
58 -213 20 -226 -208 -5 -72 -20 -185 -33 -251 -14 -66 -31 -158 -37 -205 -6
-47 -22 -132 -35 -190 -13 -58 -27 -148 -30 -200 -4 -52 -17 -144 -30 -205
-28 -131 -46 -278 -48 -386 -2 -89 19 -131 66 -137 61 -7 90 38 107 168 6 47
17 114 25 150 8 36 19 102 24 147 23 180 83 210 240 118 262 -153 475 -151
738 7 102 61 195 164 256 284 28 54 87 277 93 349 23 262 -203 576 -456 634
-74 17 -247 13 -310 -8z m196 -142 c132 -24 300 -156 339 -264 22 -65 32 -277
16 -371 -22 -132 -133 -293 -246 -360 -210 -123 -512 -106 -654 37 -143 143
-159 245 -87 539 42 170 67 213 171 297 140 112 294 153 461 122z"/>
<path d="M14483 3166 c-117 -38 -153 -66 -153 -121 0 -50 61 -61 179 -30 89
23 215 30 297 16 219 -37 295 -107 302 -276 5 -119 -29 -164 -141 -187 -55
-12 -58 -11 -129 24 -123 61 -214 70 -401 43 -475 -70 -595 -587 -183 -790 88
-44 201 -59 345 -45 87 8 106 14 201 62 138 70 176 71 305 8 104 -50 168 -58
204 -26 33 30 27 71 -24 145 -76 113 -76 83 1 590 30 196 27 232 -26 369 -53
137 -90 166 -278 213 -156 40 -385 42 -499 5z m309 -625 c106 -10 112 -12 202
-99 115 -111 102 -231 -40 -361 -123 -112 -246 -149 -463 -139 -162 8 -268 70
-318 186 -25 56 -23 176 4 228 81 154 281 214 615 185z"/>
<path d="M20004 3175 c-133 -29 -206 -94 -170 -150 23 -35 64 -39 162 -15 304
72 554 -6 608 -191 54 -179 -36 -269 -208 -209 -32 11 -95 24 -139 30 -360 45
-612 -41 -712 -244 -151 -304 129 -640 499 -601 77 8 133 26 273 86 154 67
169 66 305 -21 76 -50 149 -56 186 -17 34 36 28 68 -24 132 -80 97 -88 153
-49 340 36 175 68 431 60 488 -22 172 -141 289 -372 366 -75 25 -316 29 -419
6z m252 -666 c290 -80 364 -228 197 -393 -58 -58 -87 -73 -228 -119 -136 -45
-185 -52 -260 -38 -321 59 -395 362 -122 503 59 31 214 77 261 77 21 1 90 -13
152 -30z"/>
<path d="M11695 3141 c-498 -7 -472 4 -500 -208 -8 -60 -23 -146 -34 -192 -11
-46 -25 -150 -31 -230 -12 -154 -16 -187 -49 -341 -36 -166 -24 -279 30 -293
34 -9 75 18 92 61 26 66 66 276 77 405 6 67 22 176 35 242 13 66 28 159 34
207 23 199 35 204 438 211 462 8 445 28 370 -458 -8 -49 -33 -198 -56 -330
-44 -250 -45 -291 -10 -326 27 -27 63 -24 102 11 40 34 53 75 67 205 5 50 19
122 30 160 12 40 27 140 35 235 10 105 24 198 40 255 53 188 43 317 -28 369
-34 25 -54 25 -642 17z"/>
<path d="M12940 3144 c-78 -10 -114 -44 -96 -89 10 -27 71 -45 151 -45 114 0
176 -31 195 -98 8 -32 -10 -269 -25 -322 -2 -8 -9 -78 -15 -155 -7 -86 -22
-186 -41 -259 -35 -143 -37 -217 -9 -263 37 -61 107 -37 129 44 21 78 64 312
76 413 8 58 25 150 38 205 14 55 30 151 35 214 16 178 44 202 247 212 91 4
139 11 162 22 51 27 56 83 9 105 -23 10 -786 25 -856 16z"/>
<path d="M8047 3134 c-3 -3 -129 -7 -279 -7 -274 -2 -274 -2 -350 -40 -276
-136 -345 -418 -155 -625 70 -76 80 -95 80 -156 1 -66 -12 -89 -123 -222 -107
-127 -129 -166 -110 -189 32 -39 84 -6 240 153 151 155 268 260 318 287 49 27
240 29 287 3 86 -46 104 -106 75 -245 -26 -124 -26 -173 1 -207 65 -83 179 37
179 189 0 23 8 75 19 116 34 134 41 182 50 355 8 135 16 197 40 292 47 185 38
257 -34 288 -34 14 -225 21 -238 8z m8 -96 c43 -23 81 -67 95 -112 25 -77 -8
-310 -53 -378 -46 -69 -216 -119 -347 -103 -59 7 -267 58 -313 76 -108 44
-138 205 -66 347 53 102 161 164 319 182 119 14 329 6 365 -12z"/>
<path d="M9419 3130 c-315 -5 -315 -5 -390 -42 -129 -64 -216 -176 -255 -330
-29 -110 -3 -178 111 -298 136 -142 125 -197 -81 -411 -76 -78 -99 -118 -89
-150 17 -54 113 -17 179 68 62 81 308 323 356 351 62 37 272 46 330 14 66 -36
75 -67 72 -233 -1 -80 2 -158 7 -172 15 -39 56 -62 86 -49 43 20 56 55 71 184
7 68 24 170 38 228 14 58 30 155 36 215 5 61 24 187 40 280 34 193 37 243 14
290 -21 46 -67 65 -146 63 -34 -1 -205 -5 -379 -8z m268 -120 c97 -43 102
-113 31 -413 -23 -96 -113 -146 -236 -130 -42 6 -109 8 -148 6 -116 -8 -266
31 -324 83 -129 117 -70 334 116 425 59 29 78 33 187 39 243 13 328 11 374
-10z"/>
<path d="M3890 3102 c-54 -17 -78 -69 -95 -209 -8 -63 -26 -168 -39 -232 -13
-64 -29 -163 -35 -221 -6 -58 -22 -153 -36 -210 -49 -204 -31 -350 44 -350 50
0 82 56 96 165 13 97 57 265 78 297 49 71 56 73 407 76 340 3 380 -2 415 -51
20 -28 19 -94 -2 -171 -24 -92 -24 -267 1 -295 28 -31 69 -27 100 10 14 17 26
34 26 37 0 25 32 213 44 260 22 84 102 569 116 703 11 97 11 120 -1 144 -29
60 -98 63 -135 7 -9 -14 -39 -114 -65 -221 -56 -226 -66 -243 -158 -262 -83
-17 -565 -6 -614 15 -79 32 -97 109 -72 299 17 134 14 170 -16 193 -20 16 -42
22 -59 16z"/>
<path d="M6630 3097 c-41 -20 -67 -83 -99 -238 -43 -208 -62 -244 -140 -271
-57 -19 -610 -14 -650 6 -55 29 -73 64 -67 126 11 115 18 290 12 315 -9 35
-41 65 -69 65 -55 0 -102 -110 -133 -315 -9 -55 -29 -172 -44 -260 -16 -88
-34 -212 -40 -275 -5 -63 -17 -142 -25 -175 -36 -149 2 -233 85 -190 54 28 82
106 100 275 14 134 41 196 102 231 43 24 45 24 350 27 341 3 374 -2 415 -64
23 -36 23 -184 -1 -292 -29 -132 -14 -192 47 -192 66 0 112 110 126 298 6 71
21 176 35 233 13 57 29 147 36 199 6 52 22 140 35 195 13 55 27 125 31 156 13
110 -38 180 -106 146z"/>
<path d="M15962 3094 c-49 -34 -76 -125 -87 -294 -4 -52 -18 -142 -32 -200
-13 -58 -31 -175 -38 -261 -8 -94 -24 -195 -40 -258 -36 -137 -24 -201 43
-234 55 -28 1618 -30 1670 -3 39 20 70 60 81 105 43 177 65 293 76 414 8 78
25 194 39 257 61 284 59 456 -5 473 -60 16 -99 -40 -118 -173 -7 -41 -20 -118
-31 -170 -11 -52 -29 -174 -40 -270 -11 -102 -32 -219 -48 -280 -59 -216 -80
-230 -340 -230 -193 0 -239 13 -274 80 -28 54 -25 239 7 411 13 74 29 170 35
214 6 44 22 140 36 212 33 169 20 223 -55 223 -60 0 -100 -74 -131 -240 -10
-58 -28 -146 -39 -196 -10 -51 -22 -136 -26 -190 -12 -175 -25 -263 -51 -337
-56 -156 -85 -170 -345 -165 -203 3 -228 10 -264 71 -35 60 -28 255 16 411 11
39 24 118 30 176 5 58 19 157 30 220 25 137 22 206 -11 232 -27 22 -58 23 -88
2z"/>
<path d="M18274 3095 c-53 -36 -80 -144 -94 -380 -12 -198 -13 -212 -45 -370
-80 -403 -78 -387 -66 -427 19 -62 68 -76 120 -33 41 35 58 88 76 235 28 226
55 277 143 267 61 -7 84 -26 317 -270 246 -257 308 -298 350 -233 26 40 -1 85
-128 210 -102 100 -216 227 -289 322 -81 106 -35 225 130 336 40 27 103 75
140 106 37 32 95 79 130 106 72 55 96 87 87 115 -8 25 -37 35 -80 27 -36 -7
-265 -167 -360 -253 -113 -101 -230 -139 -286 -94 -23 19 -24 23 -21 150 2
101 0 136 -12 159 -23 44 -72 56 -112 27z"/>
</g>
</svg>
