<?xml version="1.0" standalone="no"?>
<!DOCTYPE svg PUBLIC "-//W3C//DTD SVG 20010904//EN"
 "http://www.w3.org/TR/2001/REC-SVG-20010904/DTD/svg10.dtd">
<svg version="1.0" xmlns="http://www.w3.org/2000/svg"
 width="1280.000000pt" height="820.000000pt" viewBox="0 0 1280.000000 820.000000"
 preserveAspectRatio="xMidYMid meet">
<metadata>
Created by potrace 1.16, written by Peter Selinger 2001-2019
</metadata>
<g transform="translate(0.000000,820.000000) scale(0.100000,-0.100000)"
fill="#000000" stroke="none">
<path d="M12667 8157 c-48 -24 -86 -59 -120 -110 -9 -15 -25 -27 -33 -27 -9 0
-46 -29 -82 -64 -37 -35 -89 -77 -117 -93 -33 -19 -57 -43 -71 -69 -11 -21
-29 -41 -40 -43 -23 -4 -124 -101 -161 -153 -14 -21 -47 -51 -73 -67 -34 -21
-49 -37 -53 -59 -4 -20 -14 -32 -29 -36 -13 -3 -68 -56 -122 -116 -54 -61
-111 -117 -127 -125 -16 -9 -32 -29 -39 -49 -6 -19 -20 -38 -30 -41 -11 -3
-33 -24 -50 -45 -17 -22 -46 -44 -66 -50 -31 -11 -40 -9 -92 18 -31 16 -73 33
-92 37 -19 3 -50 13 -68 22 -18 8 -40 12 -47 9 -24 -9 -37 -83 -30 -170 9
-112 -4 -159 -64 -216 -44 -43 -71 -62 -148 -103 -41 -21 -72 -80 -57 -105 6
-9 29 -19 52 -23 22 -3 47 -11 56 -18 10 -9 47 -15 94 -16 115 -3 195 -15 210
-33 6 -9 12 -29 12 -45 0 -16 11 -56 24 -90 13 -34 27 -72 31 -84 3 -12 21
-31 40 -43 l33 -20 36 21 c20 11 36 23 36 25 0 18 34 162 41 175 5 10 26 31
48 48 39 31 79 43 251 75 111 21 110 21 110 76 0 60 -14 100 -36 100 -9 0 -32
9 -50 21 -29 18 -34 26 -34 59 0 26 8 48 25 68 14 17 25 34 25 39 0 5 13 22
29 37 16 16 32 38 35 50 3 13 16 28 30 34 31 14 78 72 92 114 6 19 22 39 38
46 14 7 38 31 51 52 13 21 42 53 65 71 22 18 40 41 40 51 0 10 19 38 43 61 23
24 49 52 58 64 10 11 23 25 31 29 8 5 41 46 72 91 32 46 71 91 87 100 16 10
29 23 29 29 0 7 17 34 38 61 90 114 142 224 142 299 0 23 8 41 27 58 l26 25
-27 35 c-15 20 -32 36 -39 36 -7 0 -34 -11 -60 -23z M4640 6835 c-7 -8 -21
-15 -33 -15 -29 0 -213 -115 -267 -168 -14 -13 -42 -33 -62 -43 -21 -11 -42
-28 -47 -38 -6 -10 -24 -24 -41 -29 -17 -6 -33 -18 -36 -27 -4 -9 -21 -23 -38
-32 -28 -14 -56 -37 -191 -159 -22 -19 -56 -46 -75 -58 -19 -12 -45 -37 -58
-56 -12 -19 -36 -41 -52 -47 -16 -7 -36 -26 -44 -42 -9 -16 -31 -38 -50 -49
-21 -12 -42 -36 -50 -57 -8 -19 -25 -39 -38 -44 -27 -10 -82 -68 -91 -94 -4
-10 -22 -24 -42 -32 -19 -9 -41 -28 -50 -45 -9 -17 -33 -41 -55 -55 -25 -16
-40 -33 -40 -46 0 -11 -21 -39 -49 -65 -27 -25 -52 -56 -55 -69 -4 -14 -19
-31 -35 -39 -16 -9 -38 -30 -48 -49 -11 -18 -45 -63 -75 -99 -31 -35 -59 -75
-63 -89 -4 -13 -31 -47 -59 -75 -67 -68 -183 -237 -200 -292 -4 -10 -20 -28
-36 -40 -20 -15 -30 -31 -30 -49 0 -14 -9 -40 -20 -58 -25 -41 -50 -146 -50
-216 0 -71 25 -156 50 -169 11 -6 20 -18 20 -28 0 -9 18 -42 40 -72 22 -30 50
-71 64 -90 25 -37 110 -93 176 -116 148 -51 420 -46 604 11 27 8 64 15 83 15
29 0 33 -3 33 -25 0 -35 -44 -101 -77 -117 -15 -7 -37 -31 -50 -53 -12 -22
-44 -62 -70 -90 -26 -28 -56 -65 -65 -83 -9 -18 -33 -42 -53 -53 -23 -14 -35
-28 -35 -43 0 -26 -18 -46 -41 -46 -10 0 -28 -15 -40 -32 -12 -18 -47 -58 -78
-88 -31 -30 -78 -83 -106 -117 -27 -35 -112 -125 -187 -202 -76 -77 -138 -146
-138 -154 0 -9 -13 -25 -30 -37 -16 -12 -30 -27 -30 -34 0 -7 -17 -24 -37 -37
-21 -13 -50 -43 -66 -67 -16 -23 -49 -58 -75 -78 -26 -19 -55 -51 -65 -69 -9
-19 -26 -39 -37 -45 -11 -6 -26 -23 -34 -39 -8 -15 -28 -33 -43 -40 -15 -6
-43 -33 -62 -59 -18 -26 -53 -63 -77 -82 -24 -19 -48 -47 -55 -61 -6 -15 -23
-33 -39 -39 -16 -6 -34 -24 -40 -40 -6 -16 -25 -34 -41 -41 -17 -6 -42 -28
-57 -48 -14 -20 -70 -79 -123 -132 -53 -53 -100 -106 -103 -117 -4 -11 -20
-25 -36 -31 -20 -7 -36 -24 -51 -55 -20 -43 -42 -66 -101 -107 -13 -9 -34 -38
-47 -65 -13 -27 -31 -55 -40 -62 -9 -7 -29 -23 -45 -35 -24 -18 -161 -152
-216 -210 -6 -7 -23 -23 -36 -37 -40 -40 -50 -53 -67 -85 -8 -17 -26 -36 -39
-44 -28 -15 -86 -91 -99 -131 -6 -17 -20 -31 -35 -34 -13 -4 -35 -24 -49 -46
-14 -22 -38 -46 -55 -55 -17 -9 -36 -31 -44 -50 -9 -22 -26 -39 -43 -46 -39
-15 -63 -38 -80 -77 -8 -20 -26 -38 -43 -46 -17 -7 -43 -32 -58 -57 -16 -24
-41 -53 -56 -62 -15 -10 -31 -29 -36 -43 -5 -13 -25 -33 -43 -44 -19 -11 -43
-37 -53 -58 -29 -56 -89 -125 -154 -176 -42 -33 -65 -62 -89 -108 -17 -35 -31
-68 -31 -74 0 -5 18 -27 39 -48 l40 -39 74 36 c46 21 84 47 98 66 15 21 47 41
99 62 60 25 92 46 156 107 45 43 83 83 85 91 3 7 22 16 43 20 40 6 51 17 60
62 4 18 16 30 41 40 19 8 79 57 132 110 54 53 108 99 119 103 15 4 24 18 28
41 6 30 12 36 47 45 29 8 49 24 77 59 20 26 54 60 74 77 20 16 42 42 49 58 7
16 25 32 40 38 17 6 31 21 38 39 6 16 17 29 27 29 16 0 87 65 230 210 35 36
67 68 71 72 10 9 304 302 318 317 6 5 69 68 140 139 72 71 135 136 141 143 6
8 39 34 74 59 34 24 96 82 137 127 42 46 82 83 90 83 7 0 23 16 34 35 12 20
29 35 40 35 11 0 29 16 43 38 13 20 69 79 125 131 55 52 105 107 112 123 6 15
21 30 33 34 27 9 103 82 167 162 28 35 66 72 84 83 18 11 36 30 39 44 3 13 59
73 123 134 64 61 140 141 169 179 61 77 60 75 97 103 15 12 45 47 66 78 43 62
103 121 125 121 13 0 85 88 156 189 20 27 33 36 55 36 28 0 30 -3 29 -35 -1
-19 -6 -57 -13 -85 -13 -59 -39 -213 -51 -305 -16 -117 -50 -344 -60 -395 -5
-27 -14 -95 -20 -150 -6 -55 -15 -120 -20 -145 -5 -25 -12 -94 -15 -155 -5
-83 -11 -118 -26 -141 -11 -18 -19 -49 -19 -74 0 -23 -9 -86 -20 -139 -13 -65
-20 -143 -21 -235 l-2 -138 31 -31 c26 -26 33 -28 46 -17 9 7 16 18 16 25 0 6
10 20 21 31 32 28 73 94 88 139 7 22 19 54 26 70 7 17 18 55 24 85 20 97 56
217 71 235 8 9 18 43 21 74 13 106 31 196 49 246 10 29 21 95 25 155 5 81 10
110 24 125 19 21 55 172 67 280 4 33 13 67 20 76 8 8 25 76 39 150 14 74 32
156 40 183 8 26 15 55 15 62 0 8 9 40 19 72 11 31 22 80 26 107 4 28 12 64 20
80 16 37 35 134 46 235 11 106 24 165 53 245 14 39 26 83 26 98 0 18 11 38 28
55 40 38 82 115 82 151 0 17 -9 53 -20 81 -18 45 -19 60 -10 143 5 50 14 108
20 127 5 19 10 50 10 69 0 19 4 48 9 65 25 85 61 257 81 391 5 33 16 77 24 97
9 21 16 56 16 79 0 59 20 170 35 194 7 11 18 54 25 95 6 41 16 91 21 110 8 32
31 175 46 292 7 55 -13 169 -38 218 -28 56 -123 140 -157 140 -16 0 -37 9 -47
20 -23 25 -106 28 -125 5z m-133 -662 c3 -9 1 -34 -6 -57 -7 -23 -16 -88 -21
-145 -7 -71 -15 -110 -26 -122 -9 -10 -20 -49 -25 -91 -5 -40 -14 -98 -19
-130 -6 -31 -10 -60 -9 -65 3 -10 -7 -62 -32 -176 -10 -49 -19 -101 -19 -115
0 -15 -7 -40 -16 -57 -9 -16 -19 -65 -23 -107 -6 -64 -12 -84 -39 -121 -18
-25 -32 -52 -32 -60 0 -25 -29 -47 -61 -47 -17 0 -49 -13 -72 -29 -58 -39
-123 -71 -145 -71 -11 0 -30 -8 -43 -19 -13 -10 -35 -22 -48 -26 -13 -4 -44
-20 -68 -35 -25 -16 -74 -40 -110 -55 -36 -14 -78 -39 -94 -56 -22 -24 -35
-29 -72 -29 -29 0 -68 -11 -108 -30 -35 -16 -104 -36 -154 -45 -49 -8 -103
-19 -120 -24 -39 -12 -160 -20 -172 -12 -34 22 -13 163 30 210 23 25 73 105
109 175 9 18 30 39 46 45 21 9 33 23 41 52 6 21 27 53 45 71 18 18 39 44 46
58 7 14 22 31 32 38 10 7 27 30 39 50 31 57 61 96 151 196 143 157 361 365
416 398 30 17 61 43 70 58 10 14 57 64 107 111 49 46 105 99 123 117 19 17 42
32 52 32 25 0 67 36 74 63 3 15 21 30 53 44 58 27 92 29 100 6z M11712 6153
c-7 -3 -20 -19 -28 -36 -9 -18 -29 -45 -45 -62 -79 -83 -121 -137 -130 -169
-7 -26 -17 -38 -35 -42 -15 -4 -32 -21 -44 -43 -10 -20 -78 -96 -149 -169 -72
-73 -131 -137 -131 -142 0 -9 -51 -61 -195 -199 -16 -15 -38 -31 -48 -34 -10
-4 -30 -27 -45 -52 -22 -39 -121 -144 -207 -222 -11 -10 -36 -37 -55 -60 -26
-30 -45 -44 -72 -49 -37 -6 -38 -5 -38 22 0 16 13 61 29 100 16 39 35 97 42
130 7 32 16 64 19 69 4 6 11 25 15 44 4 18 16 54 27 79 18 39 20 61 16 158
l-4 113 -46 58 c-80 102 -138 124 -216 84 -53 -27 -112 -103 -128 -163 -7 -28
-18 -56 -23 -61 -6 -6 -11 -20 -11 -31 0 -12 -12 -48 -26 -81 -15 -33 -32 -85
-39 -115 -8 -30 -18 -68 -24 -85 -25 -75 -63 -218 -68 -257 -3 -24 -14 -52
-23 -63 -10 -11 -21 -36 -25 -55 -4 -19 -18 -67 -31 -107 -13 -39 -24 -84 -24
-99 0 -15 -7 -35 -16 -45 -9 -11 -20 -49 -25 -91 -20 -168 -30 -326 -24 -374
7 -60 58 -174 78 -174 7 0 42 -20 78 -45 71 -50 114 -62 158 -47 51 18 119 75
131 110 7 17 15 32 19 32 15 0 181 194 181 211 0 21 24 41 63 54 22 7 34 20
42 45 7 20 22 40 36 47 14 7 59 51 100 97 40 47 122 134 180 194 58 60 126
139 149 175 26 39 54 70 69 76 14 5 34 12 44 16 14 6 17 2 17 -21 0 -44 -29
-133 -71 -219 -21 -44 -42 -98 -45 -120 -4 -22 -19 -65 -35 -96 -15 -31 -37
-89 -48 -130 -10 -41 -30 -113 -44 -160 -14 -52 -27 -130 -31 -196 -7 -100 -6
-111 12 -134 18 -22 28 -24 94 -24 64 0 83 4 134 31 32 17 64 42 71 55 7 13
24 31 39 39 15 9 31 28 35 42 4 14 27 63 52 109 25 46 49 101 52 122 4 21 15
42 25 47 11 6 27 40 40 82 12 40 33 92 46 116 14 24 32 64 40 91 7 26 23 56
34 66 11 10 20 27 20 37 0 10 7 33 16 50 21 41 44 117 44 150 0 16 10 34 25
46 15 12 28 37 35 67 6 25 19 63 29 83 10 21 28 67 40 104 13 37 26 70 31 73
4 3 11 20 14 39 4 20 13 48 21 63 8 15 17 46 21 70 3 23 15 50 25 59 10 9 19
29 19 44 0 15 6 33 14 39 7 6 16 33 19 59 3 26 22 85 42 131 31 70 38 98 42
177 7 114 -3 142 -67 189 -26 19 -51 42 -54 51 -5 13 -15 15 -45 10 -25 -4
-52 -1 -75 9 -34 14 -107 19 -134 8z M9604 5669 c-17 -5 -38 -17 -47 -27 -21
-23 -67 -138 -67 -167 0 -12 -13 -61 -30 -110 -16 -49 -30 -99 -30 -112 0 -13
-9 -40 -20 -60 -11 -21 -20 -45 -20 -53 0 -8 -9 -44 -20 -78 -11 -35 -20 -75
-20 -89 0 -14 -9 -36 -19 -50 -11 -13 -23 -45 -27 -71 -4 -26 -20 -85 -35
-131 -16 -47 -29 -94 -29 -105 0 -12 -6 -33 -14 -47 -7 -14 -16 -47 -20 -73
-4 -25 -18 -78 -32 -118 -13 -39 -24 -81 -24 -93 0 -12 -8 -29 -19 -39 -11
-10 -21 -36 -24 -66 -3 -26 -17 -71 -32 -99 -14 -28 -28 -72 -31 -99 -9 -76
-13 -89 -30 -96 -29 -11 -46 13 -39 57 4 22 2 92 -5 156 -12 105 -15 119 -41
146 -16 17 -29 35 -29 39 0 23 -107 150 -136 162 -18 8 -35 18 -39 24 -4 6
-22 17 -42 25 -19 8 -48 26 -65 40 -21 18 -41 25 -73 25 -23 0 -47 6 -53 13
-13 15 -3 99 22 193 46 176 51 204 50 294 0 155 -52 255 -144 280 -30 8 -50 8
-75 0 -35 -12 -95 -71 -95 -94 0 -7 -9 -25 -20 -39 -21 -27 -100 -255 -100
-290 0 -11 -8 -30 -18 -41 -10 -12 -24 -52 -32 -91 -8 -43 -22 -81 -36 -97
-12 -15 -25 -42 -29 -60 -14 -65 -39 -134 -66 -178 -32 -52 -55 -130 -65 -215
-3 -33 -22 -99 -40 -147 -19 -48 -34 -99 -34 -114 0 -14 -6 -38 -14 -52 -17
-30 -76 -239 -76 -267 0 -10 -9 -32 -19 -49 -11 -17 -20 -51 -21 -76 -5 -99
-1 -117 38 -164 20 -25 44 -54 52 -66 11 -15 32 -24 75 -30 33 -5 85 -16 115
-26 86 -26 236 -24 340 5 113 31 155 49 181 77 12 13 38 29 58 35 20 6 54 26
76 43 22 18 53 40 68 49 15 10 33 29 39 43 6 13 18 24 26 24 21 0 88 77 128
148 38 67 71 96 98 86 22 -9 23 -135 1 -154 -26 -21 -17 -47 33 -89 37 -32 52
-40 72 -36 52 12 112 49 133 80 11 18 33 37 48 42 18 7 34 24 43 47 9 21 25
50 36 66 11 15 20 38 20 49 0 25 18 65 59 136 16 28 30 58 30 68 1 9 21 57 45
105 24 48 49 106 55 129 6 22 18 46 26 53 8 7 15 25 15 41 0 15 14 64 30 109
17 45 30 90 30 101 0 10 9 36 20 56 11 21 20 50 20 65 0 15 14 69 30 120 17
51 30 100 30 109 0 9 9 24 20 34 11 10 20 30 20 46 0 15 14 69 31 121 29 87
32 105 37 270 4 169 4 178 -17 204 -11 15 -21 33 -21 40 0 30 -61 83 -115 98
-59 18 -58 18 -101 5z m-1083 -1415 c42 -21 52 -40 52 -107 1 -95 -40 -216
-78 -230 -8 -4 -15 -16 -15 -27 0 -11 -10 -29 -22 -39 -120 -102 -187 -154
-208 -163 -14 -6 -39 -17 -56 -26 -48 -23 -64 -11 -64 45 1 26 7 59 15 73 8
14 14 39 15 56 0 17 9 43 20 57 11 14 20 36 20 49 0 13 9 40 20 61 11 20 20
49 20 64 0 16 18 55 40 88 52 80 57 85 84 85 13 0 31 9 41 20 15 16 26 19 54
14 20 -4 48 -13 62 -20z M6539 4828 c-47 -50 -57 -76 -65 -168 -5 -57 -12 -89
-22 -96 -15 -11 -72 -218 -72 -262 0 -13 -6 -35 -14 -50 -7 -15 -17 -53 -21
-85 -5 -49 -13 -66 -51 -110 -24 -29 -53 -71 -63 -93 -11 -23 -24 -45 -30 -48
-14 -9 -14 -59 0 -145 9 -51 9 -83 0 -127 -21 -105 -50 -288 -50 -321 -1 -17
-14 -71 -31 -119 -30 -88 -64 -249 -56 -262 2 -4 -2 -43 -9 -87 -12 -73 -11
-85 6 -135 20 -57 40 -80 70 -80 10 0 30 -11 45 -25 33 -30 45 -31 69 -5 10
11 29 20 42 20 27 0 63 32 63 56 0 9 13 42 29 73 16 31 34 84 41 117 7 32 21
78 32 102 11 23 25 75 31 115 5 39 17 80 25 89 8 10 19 37 24 60 5 24 14 65
19 92 6 27 22 74 35 105 14 31 28 76 31 101 6 48 39 121 83 185 19 27 47 49
87 68 32 16 73 36 91 45 19 9 40 28 48 44 14 27 38 36 109 41 27 2 30 -1 29
-28 -2 -49 -44 -268 -58 -300 -26 -61 -69 -192 -80 -246 -6 -30 -19 -63 -28
-73 -12 -11 -18 -33 -18 -59 0 -23 -9 -59 -20 -80 -27 -51 -25 -77 10 -125 37
-52 65 -54 145 -12 31 17 66 30 76 30 12 0 27 13 37 30 9 17 25 33 35 36 24 8
65 72 73 114 4 19 14 46 22 60 23 35 58 119 94 220 16 47 36 99 44 117 8 17
14 38 14 47 0 9 20 57 44 108 46 97 76 181 76 211 0 10 16 49 35 86 19 38 39
93 44 123 9 55 37 149 66 228 9 25 23 94 31 153 8 60 21 118 29 130 8 12 15
36 15 54 0 30 -7 38 -62 73 -58 38 -65 40 -138 40 -75 0 -79 -1 -128 -40 -48
-39 -72 -79 -72 -123 0 -36 -50 -108 -85 -123 -19 -7 -46 -27 -62 -43 -15 -16
-56 -41 -91 -55 -34 -15 -87 -42 -117 -61 -31 -21 -74 -38 -100 -42 -43 -5
-45 -5 -45 20 0 15 -8 34 -19 44 -14 14 -20 40 -25 107 -5 61 -13 98 -25 115
-10 14 -21 36 -25 48 -11 36 -46 73 -84 89 -20 8 -46 23 -57 33 -37 33 -44 33
-76 -1z M5377 4512 c-43 -26 -99 -59 -123 -73 -25 -14 -52 -35 -60 -47 -8 -12
-24 -22 -34 -22 -28 0 -77 -46 -90 -85 -8 -25 -18 -35 -41 -40 -18 -4 -35 -17
-43 -33 -16 -31 -46 -60 -78 -76 -12 -6 -26 -24 -32 -41 -6 -16 -25 -44 -43
-61 -17 -17 -36 -47 -41 -67 -6 -21 -25 -55 -42 -77 -17 -21 -43 -68 -57 -102
-14 -35 -29 -68 -34 -74 -5 -6 -27 -46 -50 -89 -35 -67 -42 -92 -50 -169 -4
-50 -16 -116 -25 -146 -28 -96 -29 -177 -4 -271 12 -46 26 -117 30 -156 5 -40
15 -85 23 -100 8 -16 21 -41 30 -58 9 -16 28 -56 41 -88 30 -69 45 -83 151
-141 71 -39 91 -45 180 -54 101 -11 183 -8 220 8 11 5 45 16 75 26 30 9 89 34
131 55 41 22 81 39 88 39 7 0 17 13 22 30 8 22 19 31 45 36 23 4 39 16 52 38
11 18 37 46 59 61 22 16 52 46 68 66 15 21 41 43 57 50 31 13 48 36 48 68 0
11 7 24 16 29 16 9 59 111 105 248 19 56 20 63 5 97 -17 41 -48 50 -65 18 -6
-10 -23 -21 -39 -24 -22 -4 -33 -15 -40 -37 -6 -17 -22 -34 -36 -40 -14 -5
-60 -41 -103 -81 -42 -39 -96 -79 -119 -89 -23 -10 -48 -29 -55 -42 -16 -31
-28 -38 -71 -38 -24 0 -46 -8 -66 -25 -39 -33 -93 -55 -133 -55 -17 0 -42 -9
-56 -20 -14 -11 -35 -20 -45 -20 -11 0 -44 -7 -73 -15 -70 -21 -170 -15 -190
11 -18 24 -45 113 -45 148 0 15 9 52 19 84 11 31 22 87 26 125 6 52 12 71 28
82 12 9 29 40 38 72 46 156 177 433 220 463 22 16 29 29 29 54 0 37 11 50 52
60 19 4 34 19 47 44 26 50 120 138 173 161 24 10 49 26 57 35 7 9 23 16 35 16
13 0 33 11 45 24 13 13 39 27 59 31 53 10 60 19 67 90 7 58 5 69 -18 107 -15
24 -44 62 -66 86 l-40 42 -78 0 c-75 0 -81 -2 -156 -48z"/>
</g>
</svg>
