<?xml version="1.0" standalone="no"?>
<!DOCTYPE svg PUBLIC "-//W3C//DTD SVG 20010904//EN"
 "http://www.w3.org/TR/2001/REC-SVG-20010904/DTD/svg10.dtd">
<svg version="1.0" xmlns="http://www.w3.org/2000/svg"
 width="1920.000000pt" height="1230.000000pt" viewBox="0 0 1920.000000 1230.000000"
 preserveAspectRatio="xMidYMid meet">
<metadata>
Created by potrace 1.16, written by Peter Selinger 2001-2019
</metadata>
<g transform="translate(0.000000,1230.000000) scale(0.100000,-0.100000)"
fill="#000000" stroke="none">
<path d="M18985 12223 c-27 -14 -79 -55 -115 -92 -36 -36 -92 -89 -125 -116
-33 -27 -82 -70 -110 -95 -27 -26 -86 -73 -130 -105 -44 -32 -116 -95 -160
-140 -44 -44 -111 -110 -150 -146 -82 -76 -460 -462 -690 -704 -323 -339 -318
-337 -520 -261 -161 61 -241 59 -277 -6 -7 -14 -14 -87 -18 -188 -9 -235 -31
-273 -234 -409 -113 -76 -136 -103 -136 -157 0 -77 84 -115 300 -133 233 -20
258 -37 324 -214 52 -141 85 -193 132 -213 71 -30 130 20 164 138 60 216 118
257 450 323 140 28 190 64 190 137 0 56 -15 85 -79 147 -64 64 -78 100 -61
162 15 55 102 180 192 275 42 46 94 108 114 140 20 31 88 116 152 188 63 72
140 163 170 201 31 39 97 115 147 170 50 55 117 135 148 178 32 42 86 108 120
146 131 143 268 358 301 471 9 30 27 94 41 141 32 110 31 124 -4 160 -37 36
-69 37 -136 2z"/>
<path d="M7003 10259 c-61 -11 -154 -51 -243 -104 -110 -67 -636 -462 -766
-575 -60 -53 -143 -124 -185 -158 -42 -34 -245 -229 -450 -433 -463 -460 -548
-558 -1097 -1267 -46 -59 -99 -134 -119 -167 -20 -33 -71 -114 -114 -180 -154
-237 -216 -494 -163 -676 35 -120 210 -384 306 -461 212 -171 575 -210 1028
-112 129 28 172 26 196 -11 24 -37 9 -80 -50 -144 -28 -31 -69 -78 -91 -106
-22 -27 -64 -79 -95 -115 -31 -36 -73 -87 -95 -115 -49 -63 -113 -132 -290
-315 -77 -80 -187 -201 -244 -270 -58 -69 -179 -201 -271 -295 -92 -93 -182
-190 -200 -215 -19 -25 -85 -99 -148 -165 -63 -66 -167 -176 -232 -245 -405
-427 -596 -626 -684 -710 -55 -52 -118 -115 -141 -140 -22 -25 -99 -106 -171
-180 -191 -197 -284 -298 -329 -357 -21 -29 -56 -67 -78 -84 -21 -17 -69 -73
-107 -123 -37 -51 -101 -121 -141 -156 -102 -89 -328 -318 -412 -420 -39 -47
-96 -112 -126 -145 -30 -33 -85 -100 -122 -150 -37 -49 -156 -180 -266 -290
-350 -352 -614 -638 -675 -729 -22 -33 -100 -119 -173 -191 -192 -189 -227
-276 -144 -361 66 -68 146 -47 299 76 41 33 121 83 178 112 77 38 125 72 195
135 50 45 119 104 152 130 32 27 100 87 150 134 49 47 106 98 125 113 60 47
455 422 660 626 192 191 417 405 482 459 18 14 278 271 578 570 300 299 579
571 620 604 41 33 143 127 225 209 426 421 920 917 1000 1004 50 54 191 202
315 329 124 126 247 257 272 290 25 33 70 83 98 110 29 28 87 93 131 146 43
53 117 130 165 170 48 41 124 119 169 174 99 121 133 145 171 120 36 -23 33
-58 -49 -580 -107 -690 -158 -1054 -177 -1269 -5 -60 -21 -150 -34 -200 -13
-50 -27 -116 -31 -146 -3 -30 -17 -118 -30 -195 -30 -177 -43 -427 -25 -490
34 -122 125 -109 220 32 62 93 100 191 161 425 28 105 64 224 81 266 19 48 41
140 59 242 16 91 41 206 54 255 13 50 31 148 41 219 10 82 28 164 49 225 18
53 47 173 65 266 18 94 45 215 61 270 17 55 45 177 64 270 19 94 57 256 84
360 26 105 56 222 64 260 9 39 26 104 37 145 11 41 33 165 50 275 22 153 41
238 79 363 48 159 60 184 135 307 62 102 68 161 31 325 -23 102 7 346 86 695
16 72 43 204 59 295 17 91 44 219 60 285 16 66 34 166 40 223 6 57 24 145 39
195 44 142 125 596 137 767 7 106 -14 220 -56 306 -76 155 -302 288 -447 263z
m-283 -1029 c35 -35 13 -284 -40 -456 -18 -56 -39 -163 -50 -253 -28 -207 -94
-568 -132 -706 -5 -22 -19 -87 -29 -145 -32 -183 -105 -297 -224 -354 -33 -15
-89 -45 -125 -66 -36 -21 -105 -55 -154 -75 -96 -40 -474 -231 -546 -276 -25
-15 -88 -40 -140 -55 -52 -15 -119 -37 -148 -50 -72 -32 -101 -39 -296 -79
-220 -45 -312 -47 -356 -7 -40 35 -48 89 -26 163 19 66 194 351 265 432 28 32
68 84 88 115 19 32 75 107 122 167 48 61 115 148 148 195 144 202 604 677 796
821 58 44 125 103 150 132 66 77 313 301 388 351 35 24 89 66 119 93 88 79
147 96 190 53z"/>
<path d="M17595 9214 c-16 -8 -41 -25 -54 -37 -39 -36 -215 -248 -253 -305
-58 -87 -292 -355 -373 -428 -42 -37 -108 -108 -148 -158 -91 -117 -184 -213
-329 -343 -65 -57 -143 -138 -174 -179 -58 -76 -346 -362 -399 -395 -40 -25
-70 -24 -89 3 -25 36 -24 42 126 513 95 301 78 475 -64 630 -114 125 -243 128
-361 10 -59 -58 -85 -109 -147 -284 -26 -75 -57 -159 -68 -186 -23 -58 -144
-479 -172 -600 -10 -44 -32 -111 -48 -150 -26 -65 -61 -173 -141 -445 -53
-180 -88 -595 -62 -735 26 -143 113 -244 285 -330 115 -59 212 -39 313 62 54
54 232 261 306 356 27 34 140 157 251 272 112 116 223 233 247 260 24 28 100
108 168 180 68 71 159 173 203 227 89 110 114 131 155 126 71 -8 63 -102 -26
-295 -27 -60 -61 -147 -75 -195 -15 -48 -40 -117 -56 -154 -27 -59 -76 -217
-131 -419 -11 -38 -26 -113 -34 -165 -40 -258 3 -352 164 -351 176 0 316 106
438 332 82 153 175 350 228 484 24 61 71 171 105 245 114 248 140 311 161 388
11 42 42 124 69 182 53 112 206 510 260 675 18 55 48 135 66 178 19 43 48 125
64 183 17 58 51 158 75 222 69 185 80 336 30 431 -24 47 -113 128 -169 155
-95 46 -286 69 -341 40z"/>
<path d="M14394 8481 c-73 -33 -110 -96 -159 -278 -19 -71 -55 -195 -80 -278
-25 -82 -61 -206 -81 -275 -19 -69 -52 -179 -74 -245 -21 -66 -46 -149 -55
-185 -9 -36 -29 -106 -45 -157 -16 -50 -50 -172 -76 -270 -94 -363 -269 -843
-307 -843 -20 0 -32 37 -57 175 -29 166 -42 200 -117 312 -127 190 -182 236
-436 369 -185 96 -194 121 -132 358 76 288 90 433 55 572 -51 200 -155 292
-297 262 -100 -22 -201 -172 -278 -416 -20 -64 -53 -162 -72 -217 -19 -55 -46
-138 -59 -185 -14 -46 -39 -114 -56 -150 -16 -36 -45 -108 -63 -160 -17 -52
-55 -145 -83 -206 -51 -109 -66 -160 -97 -324 -9 -47 -32 -130 -51 -185 -19
-55 -45 -138 -58 -185 -46 -165 -155 -536 -171 -580 -45 -124 -29 -243 46
-349 64 -92 106 -115 282 -158 331 -81 592 -46 871 118 263 155 422 288 535
448 77 108 85 117 122 126 51 13 69 -23 69 -135 0 -84 3 -101 23 -130 78 -115
184 -103 346 41 96 84 149 161 198 289 20 52 56 134 80 182 24 48 54 116 67
151 13 34 37 89 53 122 79 158 242 629 304 877 16 64 51 183 79 265 153 449
173 548 168 809 -3 181 -3 181 -46 267 -79 159 -219 227 -348 168z m-1661
-2092 c227 -63 138 -457 -161 -706 -204 -170 -316 -209 -352 -122 -20 48 -5
115 86 372 107 304 138 359 231 414 87 51 131 60 196 42z"/>
<path d="M11257 7280 c-95 -17 -181 -89 -213 -180 -47 -133 -82 -187 -157
-242 -118 -88 -154 -111 -322 -197 -148 -77 -164 -83 -208 -78 -84 8 -126 73
-147 232 -26 205 -121 347 -272 410 -113 46 -201 -36 -223 -210 -10 -71 -22
-119 -54 -205 -16 -41 -43 -136 -60 -210 -95 -408 -107 -441 -193 -562 -108
-149 -121 -203 -104 -418 8 -90 6 -122 -12 -215 -28 -142 -37 -200 -61 -368
-11 -76 -34 -179 -50 -230 -72 -225 -118 -573 -92 -690 43 -195 291 -263 407
-112 37 49 110 219 134 314 11 45 30 105 41 134 12 29 35 108 53 177 35 135
73 265 142 485 24 77 55 181 69 230 52 178 137 288 281 363 45 23 109 62 143
87 133 98 221 85 221 -31 0 -82 -52 -309 -115 -504 -198 -613 -200 -624 -171
-693 22 -54 70 -87 126 -87 126 0 333 138 398 267 64 125 191 430 252 605 39
111 93 249 120 307 27 58 66 165 88 236 21 72 55 167 75 213 20 45 51 138 67
205 17 67 51 183 75 257 26 82 50 179 59 248 9 62 26 151 37 198 21 81 21 86
5 128 -38 99 -193 161 -339 136z"/>
<path d="M8170 6817 c-76 -28 -121 -54 -319 -184 -230 -152 -574 -511 -668
-698 -20 -38 -48 -88 -63 -110 -49 -72 -248 -481 -264 -541 -8 -33 -20 -102
-26 -154 -6 -52 -20 -133 -31 -180 -36 -147 -36 -234 -1 -405 17 -83 38 -190
47 -240 20 -111 137 -371 197 -440 86 -98 248 -175 411 -195 169 -22 301 -10
443 38 263 88 401 182 691 468 191 188 192 189 242 294 59 122 131 330 131
378 0 39 -23 87 -45 96 -55 21 -84 2 -313 -197 -87 -76 -203 -167 -256 -203
-102 -68 -360 -197 -430 -215 -23 -5 -93 -28 -156 -49 -221 -74 -356 -74 -427
2 -67 71 -79 184 -39 346 13 53 30 124 36 157 7 33 28 94 47 135 19 41 66 156
104 255 128 332 255 556 408 721 36 39 95 103 129 142 76 87 127 122 337 236
186 100 230 139 241 211 12 86 -19 171 -97 260 -80 91 -203 118 -329 72z"/>
</g>
</svg>
